<svg width="200" height="200" viewBox="0 0 200 200" fill="none" xmlns="http://www.w3.org/2000/svg">
<circle cx="100" cy="100" r="100" fill="white"/>
<path d="M91.6008 46.7243C92.1585 46.7548 92.8382 46.9446 92.8077 47.7954C92.6343 52.6352 92.6296 57.6251 92.7422 62.4344C92.7453 62.5844 92.6954 62.7308 92.601 62.8475C92.5066 62.9642 92.3739 63.0437 92.2266 63.072C80.8195 65.282 82.3077 73.6657 82.35 83.0383C82.35 84.4047 82.3969 86.2726 82.4812 87.5383C82.4913 87.6792 82.555 87.8109 82.6592 87.9063C82.7634 88.0018 82.9002 88.0538 83.0414 88.0516C86.4867 87.9976 106.584 88.1008 117.096 88.0352C119.077 87.9929 120.937 87.9789 122.916 87.9719C123.712 87.9719 124.005 87.6883 123.994 86.9149C123.68 76.7031 125.841 66.9531 114.035 62.8985C113.869 62.8413 113.726 62.7333 113.625 62.5898C113.524 62.4464 113.47 62.2747 113.473 62.0993C113.533 57.0578 113.386 52.0915 113.377 47.0524C113.377 46.895 113.435 46.7432 113.54 46.6261C113.645 46.5089 113.79 46.4346 113.946 46.4173C121.725 45.5735 130.254 49.5649 134.421 55.9305C134.986 56.7907 135.464 56.8938 136.087 55.9141C139.467 50.6102 143.688 48.6977 148.699 47.1532C151.155 46.3938 153.83 46.8344 155.705 46.8368C156.605 46.8368 156.949 47.0383 156.926 47.9899C156.881 49.9235 156.951 51.8594 156.973 53.7954C156.973 57.2243 156.956 60.3086 156.937 61.9985C156.933 62.1791 156.86 62.3513 156.735 62.4813C156.61 62.6114 156.44 62.69 156.26 62.7017C147.551 63.2922 146.144 68.786 145.814 76.4946C145.866 85.6094 144.97 96.2453 156.426 97.7476C156.552 97.7655 156.667 97.8265 156.753 97.9201C156.839 98.0138 156.889 98.1343 156.895 98.261C156.914 98.6407 156.987 99.2618 157.003 99.6391C157.029 100.288 156.9 100.642 156.276 100.825C154.952 101.214 151.617 102.21 150.251 103.476C148.282 105.295 146.048 108.505 146.116 111.852C145.99 116.509 145.966 121.173 145.985 125.833C145.985 125.833 146.721 134.38 155.501 135.496C156.225 135.587 156.464 135.742 156.471 136.612C156.501 141.243 156.635 145.752 156.349 150.555C156.333 150.852 156.133 151.319 155.751 151.382C154.973 151.475 154.187 151.482 153.408 151.403C147.281 151.115 142.357 149.078 139.596 146.95C138.658 146.223 136.837 144.372 135.886 143.329C135.815 143.25 135.729 143.186 135.632 143.142C135.536 143.098 135.431 143.074 135.325 143.072C135.219 143.07 135.114 143.091 135.016 143.132C134.918 143.172 134.829 143.233 134.756 143.31C128.883 149.362 122.693 152.341 113.948 151.059C113.885 146.23 113.744 141.637 113.737 136.762C113.737 136.073 114.028 135.749 114.492 135.569C116.653 134.725 123.337 135.137 124.209 126.353C124.369 121.08 124.153 116.744 124.209 111.454C124.169 111.33 123.935 111.095 123.762 111.168C110.018 111.107 93.9961 111.145 82.7906 111.25C82.3335 111.25 82.1062 111.37 82.1085 111.902C82.1296 114.948 82.3804 117.241 82.4461 120.285C82.6335 123.442 82.8585 126.245 84.1382 129.353C85.3875 132.381 87.7593 134.596 91.889 135.602C92.7164 135.803 93.1664 136.274 93.2132 137.226C93.4475 141.756 93.4804 146.905 93.6233 151.438C89.6695 151.518 85.7508 151.478 81.9046 150.074C78.0187 148.656 76.0453 146.577 73.4274 143.957C73.3291 143.858 73.2098 143.781 73.0783 143.734C72.9468 143.687 72.8064 143.669 72.6673 143.683C72.5282 143.697 72.3939 143.742 72.2744 143.815C72.1549 143.887 72.0531 143.985 71.9766 144.102C67.1461 151.382 58.6828 151.429 52.1484 151.368C51.2109 151.368 51.1195 151.023 51.082 150.095C50.8898 145.422 50.8477 140.692 50.7445 136.002C50.7357 135.898 50.7488 135.793 50.7829 135.694C50.8171 135.595 50.8716 135.505 50.9429 135.428C51.0142 135.351 51.1007 135.291 51.1969 135.249C51.2932 135.208 51.3969 135.188 51.5016 135.189C56.7656 134.955 60.8766 131.378 60.9492 127.307C60.989 125.547 61.0664 123.203 61.0664 121.438C61.0664 112.026 61.5867 105.018 50.6883 101.212C50.5102 101.151 50.6883 99.4328 50.632 98.6571C50.6281 98.6134 50.6403 98.5699 50.6662 98.5345C50.692 98.4991 50.7299 98.4743 50.7727 98.4649C56.0368 97.3094 60.1102 92.3875 60.6774 87.1258C60.4266 78.0836 62.6508 64.9352 51.068 62.9852C50.7817 62.9413 50.5188 62.8014 50.3225 62.5885C50.1262 62.3755 50.0081 62.1023 49.9875 61.8133C49.8234 58.3188 49.8328 51.6766 49.8844 47.8774C49.9078 46.2532 50.4445 46.1173 51.8156 46.0938C53.8091 46.0337 55.8042 46.1191 57.7852 46.3493C62.4375 46.9469 67.8632 51.3462 70.5492 56.2375C70.9547 56.9852 71.3555 56.8094 71.6109 56.1743C74.1774 50.4251 80.7 47.1344 86.6109 46.7993L91.6008 46.7243Z" fill="#2D3837"/>
<path d="M97.4508 125.53H97.4085C96.4472 125.522 95.5098 125.23 94.7148 124.689C93.9198 124.148 93.3031 123.384 92.9428 122.493C92.5825 121.601 92.4946 120.623 92.6905 119.682C92.8863 118.741 93.357 117.879 94.043 117.205C94.947 116.304 96.1718 115.798 97.4485 115.799H97.4906C98.1303 115.803 98.763 115.934 99.3519 116.184C99.941 116.433 100.475 116.797 100.923 117.253C101.372 117.71 101.726 118.25 101.965 118.843C102.204 119.437 102.323 120.072 102.316 120.711L100.779 120.697L102.316 120.711C102.305 121.993 101.789 123.218 100.879 124.12C99.9687 125.023 98.7393 125.53 97.4578 125.53H97.4508ZM97.4508 118.883C96.9771 118.881 96.522 119.067 96.1855 119.401C95.849 119.734 95.6588 120.187 95.6566 120.661C95.6545 121.135 95.8405 121.59 96.174 121.926C96.5073 122.263 96.9607 122.453 97.4343 122.455H97.4508C97.9137 122.44 98.3528 122.246 98.6756 121.914C98.9985 121.582 99.1798 121.138 99.1818 120.675C99.1836 120.212 99.0056 119.766 98.6854 119.431C98.3652 119.097 97.9276 118.899 97.4648 118.881L97.4508 118.883Z" fill="#B53A25"/>
<path d="M97.4508 104.331H97.4086C96.7703 104.329 96.1387 104.2 95.5499 103.954C94.9612 103.707 94.4268 103.347 93.9773 102.893C93.0694 101.978 92.5624 100.74 92.5677 99.4505C92.5729 98.1613 93.0901 96.927 94.0054 96.0192C94.9207 95.1113 96.1593 94.6041 97.4484 94.6094H97.4907C98.7807 94.62 100.014 95.1425 100.919 96.0619C101.824 96.9813 102.326 98.2225 102.316 99.5126L100.779 99.4986L102.316 99.5126C102.305 100.794 101.789 102.019 100.879 102.922C99.9688 103.824 98.7394 104.331 97.4579 104.331H97.4508ZM97.4508 97.6844C96.9772 97.6823 96.522 97.8684 96.1855 98.2017C95.8491 98.5351 95.6589 98.9886 95.6567 99.4622C95.6545 99.9358 95.8405 100.391 96.174 100.727C96.5074 101.064 96.9607 101.254 97.4344 101.256H97.4508C97.9245 101.258 98.3795 101.072 98.7157 100.738C99.052 100.405 99.2419 99.9511 99.2437 99.4774C99.2457 99.0038 99.0593 98.5488 98.7257 98.2125C98.3921 97.8763 97.9385 97.6863 97.4649 97.6844H97.4508Z" fill="#B53A25"/>
<path d="M133.802 97.7476H100.913V100.823H133.802V97.7476Z" fill="#B53A25"/>
<path d="M101.295 122.341C100.649 122.341 100.005 122.282 99.3704 122.165L99.9258 119.142C103.549 119.809 107.487 117.754 109.952 113.903C110.965 112.326 111.743 110.5 112.57 108.571C113.21 107.071 113.871 105.524 114.661 104.078C117.115 99.5806 120.504 97.354 123.722 98.1204L123.019 101.111C120.909 100.609 118.657 103.188 117.368 105.55C116.651 106.867 116.046 108.281 115.406 109.769C114.567 111.731 113.7 113.753 112.552 115.553C109.816 119.824 105.551 122.341 101.295 122.341Z" fill="#B53A25"/>
<path d="M134.581 104.542H134.536C133.541 104.534 132.571 104.231 131.748 103.671C130.925 103.111 130.287 102.32 129.914 101.397C129.541 100.475 129.451 99.4621 129.653 98.4878C129.856 97.5137 130.343 96.6215 131.053 95.9242C131.522 95.458 132.078 95.0902 132.691 94.8423C133.304 94.5943 133.96 94.4713 134.62 94.4805C135.954 94.4928 137.229 95.0341 138.164 95.9856C139.099 96.937 139.619 98.2206 139.608 99.5546L137.902 99.5382L139.608 99.5546C139.597 100.881 139.062 102.149 138.121 103.083C137.179 104.017 135.907 104.542 134.581 104.542ZM134.581 97.8953C134.163 97.9093 133.766 98.0848 133.475 98.3848C133.183 98.6849 133.019 99.0862 133.017 99.5045C133.016 99.9228 133.176 100.326 133.465 100.628C133.754 100.931 134.149 101.11 134.566 101.127C134.779 101.13 134.99 101.09 135.187 101.01C135.384 100.929 135.563 100.81 135.713 100.659C135.941 100.435 136.098 100.148 136.163 99.8347C136.228 99.5215 136.199 99.1961 136.079 98.8996C135.959 98.603 135.754 98.3489 135.489 98.1692C135.224 97.9896 134.912 97.8926 134.592 97.8906L134.581 97.8953Z" fill="#B53A25"/>
<path d="M136.496 47.7803L133.421 47.7862L133.513 95.5962L136.588 95.5903L136.496 47.7803Z" fill="#B53A25"/>
<path d="M148.758 60.2009C147.798 60.2009 146.86 59.9167 146.062 59.3845C145.263 58.8522 144.64 58.0955 144.271 57.2098C143.902 56.3239 143.803 55.3488 143.988 54.4071C144.172 53.4653 144.63 52.5991 145.306 51.9176C145.982 51.2362 146.844 50.7699 147.784 50.5776C148.724 50.3853 149.7 50.4756 150.589 50.837C151.478 51.1985 152.24 51.815 152.779 52.6087C153.318 53.4025 153.611 54.3382 153.619 55.2977C153.628 56.5861 153.126 57.8257 152.223 58.7445C151.32 59.6633 150.089 60.1861 148.8 60.1985L148.758 60.2009ZM148.758 53.554H148.742C148.268 53.5561 147.814 53.7465 147.481 54.0829C147.148 54.4194 146.962 54.8745 146.964 55.3481C146.966 55.8219 147.156 56.2752 147.493 56.6086C147.829 56.9419 148.284 57.1281 148.758 57.1259H148.772C149.245 57.1216 149.698 56.9296 150.03 56.5921C150.362 56.2547 150.547 55.7994 150.544 55.3259C150.539 54.8555 150.349 54.4059 150.015 54.0743C149.682 53.7427 149.231 53.5558 148.76 53.554H148.758Z" fill="#B53A25"/>
<path d="M136.57 76.3842L133.5 76.2272C133.535 75.524 134.487 59.0897 144.473 55.7124L145.458 58.6232C143.21 59.385 140.102 61.6702 138.07 68.2842C137.278 70.9219 136.776 73.6379 136.57 76.3842Z" fill="#B53A25"/>
<path d="M136.239 101.426L133.164 101.432L133.272 153.004L136.347 152.997L136.239 101.426Z" fill="#B53A25"/>
<path d="M148.512 147.391H148.469C147.508 147.383 146.57 147.09 145.775 146.549C144.98 146.008 144.364 145.244 144.003 144.353C143.643 143.461 143.554 142.483 143.75 141.542C143.945 140.6 144.416 139.738 145.101 139.064C145.787 138.39 146.657 137.934 147.602 137.754C148.546 137.575 149.523 137.679 150.408 138.055C151.293 138.431 152.047 139.06 152.574 139.864C153.101 140.668 153.378 141.61 153.37 142.572C153.358 143.853 152.841 145.077 151.931 145.98C151.021 146.882 149.793 147.389 148.512 147.391ZM148.512 140.744C148.038 140.742 147.583 140.928 147.246 141.261C146.91 141.594 146.72 142.048 146.717 142.521C146.715 142.995 146.901 143.45 147.235 143.787C147.568 144.123 148.021 144.313 148.495 144.316H148.512C148.985 144.317 149.44 144.131 149.776 143.798C150.113 143.464 150.303 143.01 150.304 142.537C150.306 142.063 150.12 141.608 149.786 141.272C149.453 140.936 148.999 140.746 148.526 140.744H148.512Z" fill="#B53A25"/>
<path d="M134.838 160H134.796C133.496 159.995 132.252 159.474 131.336 158.552C130.419 157.629 129.906 156.382 129.909 155.082C129.912 153.782 130.43 152.536 131.35 151.618C132.27 150.7 133.517 150.185 134.817 150.185C136.117 150.185 137.363 150.7 138.284 151.618C139.204 152.536 139.722 153.782 139.725 155.082C139.728 156.382 139.215 157.629 138.298 158.552C137.382 159.474 136.138 159.995 134.838 160ZM134.838 153.353C134.604 153.352 134.371 153.398 134.154 153.486C133.937 153.575 133.74 153.706 133.573 153.871C133.407 154.037 133.274 154.233 133.184 154.449C133.093 154.666 133.046 154.898 133.045 155.132C133.044 155.367 133.089 155.599 133.178 155.816C133.267 156.033 133.398 156.231 133.563 156.397C133.728 156.564 133.925 156.696 134.141 156.786C134.357 156.877 134.59 156.924 134.824 156.925C135.059 156.931 135.293 156.889 135.511 156.801C135.729 156.713 135.927 156.581 136.092 156.414C136.343 156.166 136.516 155.849 136.587 155.504C136.658 155.158 136.626 154.799 136.494 154.471C136.361 154.144 136.135 153.863 135.843 153.664C135.552 153.465 135.208 153.357 134.855 153.353H134.838Z" fill="#B53A25"/>
<path d="M134.838 49.7219H134.796C133.507 49.7166 132.273 49.1994 131.365 48.2841C130.457 47.3687 129.95 46.1303 129.955 44.841C129.96 43.5519 130.478 42.3176 131.393 41.4097C132.308 40.5018 133.547 39.9948 134.836 40H134.878C136.167 40.0124 137.398 40.5353 138.301 41.4541C139.204 42.3728 139.706 43.6124 139.697 44.9008L138.159 44.8891L139.697 44.9008C139.685 46.1823 139.168 47.4074 138.259 48.3101C137.349 49.2128 136.12 49.7201 134.838 49.7219ZM134.838 43.075C134.365 43.0732 133.91 43.2595 133.573 43.5932C133.237 43.9268 133.047 44.3803 133.045 44.8539C133.044 45.3276 133.23 45.7826 133.564 46.1189C133.897 46.4551 134.351 46.645 134.824 46.6469H134.841C135.314 46.6488 135.769 46.4624 136.106 46.1288C136.442 45.7952 136.632 45.3417 136.634 44.868C136.636 44.3943 136.449 43.9393 136.116 43.6031C135.782 43.2669 135.328 43.0769 134.855 43.075H134.838Z" fill="#B53A25"/>
<path d="M144.347 142.593C134.376 139.22 133.205 123.14 133.16 122.462L136.226 122.258C136.47 124.948 137.008 127.603 137.829 130.176C139.938 136.649 143.076 138.918 145.329 139.679L144.347 142.593Z" fill="#B53A25"/>
<path d="M132.837 85.1948L134.053 85.8721C134.536 87.5127 135.012 89.2448 135.361 90.6158C135.793 90.5292 136.23 90.469 136.669 90.4353L136.003 89.6151C135.839 88.7877 135.607 88.1759 135.066 85.9541C134.99 85.6298 134.951 85.2981 134.948 84.9651C134.916 82.8158 134.878 80.6643 134.878 78.5151C134.878 75.7705 134.951 73.0259 134.913 70.2838C134.915 68.7526 134.484 67.2522 133.671 65.955C133.139 65.1205 132.537 64.2792 131.381 64.4314C130.226 64.5838 129.848 65.5401 129.506 66.4753C129.361 66.8643 129.183 67.244 129.021 67.6284L128.679 67.6096C128.487 66.7588 127.704 61.4361 127.331 59.6643C126.691 56.6034 125.857 53.594 122.798 51.8784C122.798 51.8784 120.689 51.0276 120.009 52.5276C119.787 53.0198 119.384 53.5097 119.337 54.0253C119.245 55.0143 119.337 56.0174 119.363 57.0158C119.363 57.2503 119.384 57.4846 119.395 57.7003L119.175 57.7564C118.77 56.8542 118.348 55.9588 117.961 55.0471C117.348 53.5596 116.375 52.2476 115.13 51.2291C114.267 50.5138 113.268 49.9812 112.193 49.6635C110.027 49.0799 108.251 50.7557 108.541 52.9448C108.57 53.1534 108.612 53.3597 108.706 53.9127C108.369 53.6829 108.015 53.4807 107.646 53.3081C106.765 52.9735 105.861 52.701 104.941 52.4924C102.893 52.1057 101.269 53.7393 101.798 55.6869C102.008 56.3973 102.395 57.0426 102.923 57.5619C103.688 58.3143 104.618 58.9072 105.476 59.5682C105.687 59.7322 105.893 59.901 106.165 60.1166C105.462 60.3674 104.864 60.508 104.339 60.7893C102.863 61.5768 102.687 63.2806 104.004 64.2674C104.55 64.6633 105.172 64.9396 105.832 65.0784C107.159 65.3666 108.513 65.5471 109.863 65.7135C111.591 65.9338 113.332 66.0651 115.055 66.3158C115.727 66.4143 116.477 66.5361 116.895 67.2745C116.191 67.8135 115.413 67.5627 114.682 67.6237C113.51 67.7174 112.338 67.7713 111.197 68.0221C110.201 68.2401 109.369 68.8401 109.207 69.9416C109.073 70.8463 109.753 71.7487 110.848 72.2408C110.983 72.308 111.125 72.3605 111.272 72.3979C113.034 72.7987 114.788 73.2603 116.569 73.5698C118.35 73.8791 120.098 74.0385 121.861 74.2846C122.632 74.3995 123.398 74.594 123.93 75.3369C123.533 75.4724 123.113 75.5335 122.693 75.5174C121.786 75.4869 120.872 75.3253 119.974 75.4003C118.507 75.5245 117.865 76.8721 118.772 77.9783C119.226 78.5171 119.809 78.9329 120.466 79.1877C121.737 79.67 123.04 80.0615 124.366 80.3596C127.702 81.1401 130.556 82.6775 132.837 85.1948Z" fill="#B8CDB4"/>
<path d="M132.178 82.6561C131.923 82.3702 131.843 81.9647 131.683 81.6155C131.673 81.5861 131.657 81.559 131.637 81.5358C131.255 81.3166 130.885 81.0763 130.53 80.8163C130.001 80.4072 129.419 80.0713 128.801 79.8178C127.289 79.275 125.745 78.8303 124.176 78.4866C124.153 78.4805 124.128 78.4758 124.104 78.4725C124.016 78.4684 123.93 78.4453 123.852 78.4049C123.774 78.3645 123.705 78.3076 123.651 78.2381C123.604 78.1542 123.576 78.061 123.569 77.9651C123.562 77.8691 123.575 77.7727 123.609 77.6826C123.625 77.6217 123.664 77.5692 123.718 77.5361C123.772 77.503 123.836 77.4917 123.898 77.5045L124.619 77.6428C126.429 77.9873 128.283 78.346 129.968 79.2834C130.202 79.396 130.46 79.5178 130.725 79.6537C129.862 78.0999 129.005 76.6655 128.119 75.2873C127.726 74.7005 127.204 74.2114 126.593 73.8576C125.206 72.9648 123.639 72.3887 122.004 72.1702C119.829 71.903 117.651 71.6241 115.544 71.357C115.46 71.357 115.376 71.3381 115.289 71.3312C114.931 71.3345 114.581 71.2344 114.279 71.0428C114.253 71.0354 114.228 71.0235 114.206 71.0076C114.164 70.9774 114.132 70.9336 114.118 70.8836C114.103 70.8334 114.105 70.7798 114.124 70.7312C114.148 70.669 114.194 70.618 114.253 70.5881L114.075 70.5507H114.309C114.562 70.4272 114.85 70.3925 115.125 70.4523H115.181C115.61 70.5038 116.039 70.5483 116.468 70.5928C117.129 70.6631 117.811 70.7334 118.481 70.8273C118.95 70.8952 119.454 70.9515 119.93 71.0076C121.985 71.2421 124.099 71.4975 126.087 72.5523L125.304 71.6546C123.581 69.6765 121.8 67.628 119.866 65.7765C119.127 65.0706 118.249 64.527 117.288 64.1804C115.179 63.3812 112.8 63.032 109.814 63.0812H109.622C108.64 63.0975 107.625 63.1163 106.406 62.7671C106.355 62.7533 106.31 62.7227 106.279 62.6801C106.247 62.6375 106.231 62.5856 106.233 62.5326C106.234 62.4778 106.254 62.4249 106.288 62.3824C106.323 62.3399 106.371 62.3103 106.425 62.2983C107.003 62.1785 107.596 62.1492 108.183 62.2116C108.466 62.2372 108.752 62.2419 109.036 62.2257C110.191 62.1453 111.35 62.1453 112.505 62.2257C114.075 62.3147 115.582 62.7084 117.042 63.1023L117.012 63.0788L116.953 63.0296C114.221 60.7666 111.288 58.7583 108.19 57.0296C108.014 56.9335 107.829 56.8468 107.634 56.7577C107.105 56.5233 106.556 56.2631 106.174 55.7499C106.149 55.7375 106.127 55.72 106.109 55.6983C106.081 55.6669 106.062 55.6285 106.054 55.5872C106.046 55.546 106.05 55.5034 106.064 55.4639V55.4359C106.079 55.3925 106.106 55.3543 106.142 55.3253C106.177 55.2964 106.22 55.2778 106.265 55.2718C106.312 55.2644 106.359 55.2709 106.401 55.2905C106.643 55.3065 106.875 55.3875 107.074 55.5249L107.175 55.5812C109.796 56.9349 112.322 58.4633 114.738 60.1562C115.962 61.035 117.136 61.996 118.444 63.1186C118.373 62.9686 118.305 62.8186 118.237 62.6686C117.78 61.6655 117.347 60.7163 116.904 59.7881C116.492 58.9743 116.022 58.1911 115.498 57.4444C115.183 56.9757 114.858 56.4812 114.56 55.9773C114.049 55.1451 113.482 54.3488 112.863 53.5936C112.629 53.296 112.394 52.9889 112.141 52.6562C112.109 52.615 112.092 52.5643 112.092 52.5121C112.092 52.4597 112.109 52.4091 112.141 52.3678C112.178 52.3199 112.232 52.2881 112.291 52.2788C112.261 52.2483 112.233 52.2155 112.2 52.1851C112.247 52.2155 112.289 52.246 112.336 52.2741C112.367 52.2739 112.398 52.2794 112.427 52.2905C113.043 52.4907 113.579 52.8835 113.955 53.4109C114.241 53.7741 114.52 54.1421 114.785 54.5171C114.83 54.5757 114.869 54.6343 114.912 54.6952C115.632 55.7181 116.279 56.7911 116.848 57.9062C116.915 58.0444 116.981 58.1827 117.047 58.321C117.328 58.832 117.602 59.3475 117.862 59.8678C117.898 59.9218 117.93 59.9757 117.968 60.0273C118.151 60.3024 118.303 60.5973 118.42 60.9062C118.605 61.3421 118.779 61.7546 119.149 62.0381C119.195 62.0732 119.227 62.124 119.238 62.1812C119.285 62.4374 119.352 62.6896 119.437 62.9358C119.878 63.7373 120.347 64.5225 120.862 65.2796C121.141 65.6124 121.437 65.9381 121.739 66.271C121.938 66.4889 122.135 66.7092 122.33 66.9296C123.033 67.7171 123.759 68.4881 124.476 69.2334L125.179 69.9718C125.241 70.042 125.291 70.121 125.33 70.2062C125.35 70.2456 125.373 70.284 125.398 70.321C125.372 70.13 125.319 69.9436 125.24 69.7678C125.168 69.5987 125.112 69.4229 125.074 69.2428C124.821 67.678 124.674 66.0978 124.633 64.5131L124.605 63.9225C124.446 60.6905 123.778 57.9483 122.564 55.5413C122.551 55.5163 122.537 55.492 122.522 55.4686C122.448 55.376 122.405 55.2627 122.398 55.1445C122.39 55.0262 122.42 54.9086 122.482 54.8077C122.507 54.7694 122.542 54.7385 122.583 54.7187C122.625 54.6989 122.671 54.6908 122.716 54.6952C123.201 54.7304 123.379 55.1007 123.494 55.3444C124.451 57.346 125.32 59.3288 125.458 61.5765L125.55 63.0858C125.651 64.7804 125.754 66.5334 125.913 68.2421C126.091 70.1686 126.677 71.7342 127.704 73.0326C128.446 73.9452 129.092 74.9316 129.633 75.9765C129.693 76.0891 129.772 76.1907 129.867 76.2765C129.94 76.3444 129.98 76.3444 130.005 76.3373C130.031 76.3303 130.005 76.2834 130.005 76.26C130.008 75.3094 130.138 74.3634 130.392 73.4475C130.78 71.9434 131.051 70.4115 131.203 68.8655C131.203 68.8163 131.203 68.7671 131.203 68.7178C131.193 68.5463 131.219 68.3747 131.278 68.2134C131.338 68.0523 131.429 67.9048 131.548 67.7804C131.594 67.7364 131.655 67.7121 131.719 67.7121C131.782 67.7121 131.844 67.7364 131.89 67.7804C132.021 67.912 132.117 68.0757 132.166 68.2552C132.215 68.4348 132.217 68.6241 132.171 68.8046C132.158 68.8923 132.151 68.9807 132.15 69.0694C132.126 70.4318 131.933 71.7858 131.576 73.1007C130.793 75.6787 130.954 78.0225 132.065 80.2444C132.145 80.4084 132.234 80.5819 132.323 80.76C132.328 80.7529 134.245 84.9718 132.178 82.6561Z" fill="#2D3837"/>
<path d="M135.727 87.2431C135.815 87.3314 135.912 87.41 136.017 87.4775C137.423 88.1337 138.016 89.5118 137.423 90.9626C136.969 92.0852 136.521 93.2102 136.158 94.3657C135.893 95.2118 135.366 95.9712 135.312 96.8876L135.194 97.0376C135.368 97.0892 135.269 96.9345 135.309 96.8852C135.408 96.8712 135.527 96.8689 135.565 96.7634C135.893 95.8258 136.54 95.0524 137.032 94.197C137.573 93.2595 138.171 92.3407 138.734 91.4079C138.915 91.0964 139.16 90.8262 139.451 90.6143C139.743 90.4025 140.076 90.2537 140.428 90.1775C141.036 90.0278 141.677 90.096 142.24 90.3701C142.803 90.644 143.253 91.1066 143.51 91.6775C144.037 92.9478 143.608 94.4899 142.441 95.0524C140.59 95.936 138.783 96.9274 136.816 97.5602C136.544 97.6494 136.441 97.8157 136.39 98.1696C138.23 97.6189 140.027 97.2978 141.78 96.8313C142.739 96.5805 143.7 96.3508 144.663 96.8032C145.922 97.3962 146.475 99.0462 145.87 100.382C145.333 101.568 143.59 102.236 142.355 101.702C140.651 100.956 138.874 100.408 137.142 99.7423C137.006 99.6907 136.873 99.5994 136.737 99.7423C136.716 99.9439 136.896 99.9766 137.011 100.045C138.565 101.013 140.112 101.99 141.68 102.932C143.412 103.97 143.599 106.263 141.963 107.43C140.646 108.367 138.813 108.018 138.091 106.541C137.58 105.496 137.091 104.432 136.608 103.38C136.242 102.574 135.97 101.695 135.394 100.973C135.188 101.179 135.284 101.366 135.328 101.556C135.745 103.34 136.174 105.121 136.566 106.912C136.826 108.105 136.512 109.106 135.476 109.844C134.63 110.446 133.439 110.444 132.405 109.79C131.665 109.321 131.25 108.255 131.384 107.331C131.552 106.159 132.122 105.128 132.483 104.022C132.797 103.054 133.144 102.093 133.488 101.092C133.407 101.084 133.326 101.099 133.254 101.136C133.181 101.174 133.122 101.232 133.083 101.303C132.281 102.639 131.508 103.994 130.68 105.316C130.118 106.209 129.588 107.146 128.358 107.317C127.78 107.42 127.185 107.331 126.662 107.063C126.14 106.795 125.721 106.363 125.468 105.834C125.215 105.304 125.142 104.707 125.262 104.132C125.381 103.557 125.686 103.038 126.129 102.653C126.621 102.227 127.242 102.032 127.821 101.772C129.429 101.045 131.039 100.326 132.598 99.4728C132.436 99.2618 132.295 99.3439 132.155 99.379C130.139 99.8923 128.123 100.396 126.096 100.851C125.663 100.959 125.209 100.955 124.777 100.842C124.346 100.728 123.949 100.507 123.625 100.2C123.301 99.8923 123.06 99.5083 122.924 99.083C122.787 98.6577 122.76 98.205 122.845 97.7665C123.136 96.2008 124.809 95.1884 126.194 95.7157C127.969 96.386 129.766 97.0024 131.564 97.6165C131.845 97.7126 132.044 98.0852 132.502 97.8508C130.938 96.775 129.352 95.8236 127.746 94.9189C126.476 94.204 125.669 93.086 125.787 91.8579C125.878 90.9204 126.907 89.7486 127.786 89.5728C129.04 89.3384 130.364 89.8797 130.833 90.8994C131.686 92.6899 132.502 94.497 133.338 96.2899C133.432 96.4868 133.453 96.7587 133.807 96.8829C133.338 94.9024 132.898 93.0087 132.478 91.1055C131.923 88.5837 132.52 88.2017 134.013 87.2525C134.602 87.1797 135.164 87.0931 135.727 87.2431ZM132.827 98.5047C132.803 98.7208 132.824 98.9396 132.888 99.1473C132.952 99.355 133.059 99.5472 133.201 99.7116C133.343 99.8761 133.518 100.009 133.714 100.103C133.911 100.197 134.124 100.249 134.341 100.256C134.753 100.239 135.144 100.073 135.441 99.7885C135.739 99.5042 135.923 99.1212 135.959 98.711C135.958 98.2995 135.8 97.904 135.516 97.6063C135.232 97.3087 134.844 97.1319 134.433 97.1126C134.235 97.095 134.036 97.1174 133.847 97.1784C133.659 97.2394 133.484 97.3378 133.334 97.4678C133.185 97.5978 133.062 97.7565 132.975 97.9347C132.888 98.1128 132.838 98.3067 132.827 98.5047Z" fill="#F74700"/>
<path d="M134.538 96.7729C134.265 96.7482 133.989 96.7791 133.727 96.8637C133.466 96.9483 133.224 97.0849 133.016 97.2653C132.809 97.4456 132.64 97.6661 132.52 97.9133C132.399 98.1606 132.33 98.4295 132.317 98.7041C132.227 100.035 133.144 101.092 134.414 101.128C135.511 101.158 136.594 100.122 136.652 98.9877C136.711 97.8534 135.722 96.8291 134.538 96.7729Z" fill="#B8CDB4"/>
<path d="M72.1267 117.343C72.1032 117.489 72.2673 116.277 72.3611 115.785C72.0119 114.735 72.1149 113.664 72.204 112.593C72.2649 111.875 71.9415 111.786 71.3861 112.124C71.3781 112.131 71.3723 112.141 71.3689 112.151C71.3655 112.162 71.3647 112.173 71.3665 112.184C71.3684 112.195 71.3729 112.205 71.3795 112.214C71.3862 112.222 71.3948 112.229 71.4048 112.234C71.3193 112.605 71.3121 112.99 71.3837 113.364C71.343 113.424 71.3203 113.495 71.3183 113.568C71.3161 113.641 71.3348 113.713 71.372 113.776C71.2056 115.011 71.0322 116.249 70.8657 117.484C70.5727 118.482 70.2095 119.457 69.8298 120.425L69.8673 120.442C69.5942 121.109 69.3595 121.791 69.1641 122.486L68.4869 122.79L68.5595 122.652C68.4891 122.553 68.229 122.673 68.1235 122.614C67.3572 123.1 66.3564 122.743 65.5079 122.715C65.2008 122.689 64.8916 122.726 64.5988 122.822C64.3058 122.918 64.0352 123.072 63.803 123.274C63.5708 123.477 63.3818 123.724 63.2471 124.001C63.1123 124.279 63.0348 124.58 63.0188 124.888C62.9954 125.153 63.1337 125.497 62.843 125.647C62.5126 125.814 62.2782 125.493 62.0462 125.319C60.5274 123.887 57.047 122.338 56.304 125.242C55.922 126.594 57.293 127.45 58.0079 128.382C59.0017 131.054 54.1477 126.615 53.5735 126.414C50.9814 124.187 46.1322 125.336 47.6603 129.404C47.9439 131.249 51.4478 132.885 50.8243 134.3C49.8868 135.095 46.6384 133.084 45.0423 133.647C43.4205 133.939 42.7455 135.299 43.5072 136.75C45.6681 139.489 44.3837 139.304 42.4619 141.4C41.4283 142.407 42.2603 144.292 43.6665 144.374C45.5603 144.842 48.2954 142.499 49.6431 144.418C50.4728 145.799 51.954 147.439 53.4704 146.671C54.7782 146.186 55.3454 145.264 55.2774 143.706C55.329 143.5 55.2119 143.129 55.4227 143.075C56.8782 142.693 57.4243 144.43 58.4227 145.574C59.4376 146.762 61.554 146.434 62.515 145.215C63.3611 144.196 63.5626 142.754 63.4524 141.435C62.8829 139.325 62.5408 135.845 65.4798 136.588L66.4782 137C67.7369 138.111 69.9938 137.853 70.2282 135.561L70.2869 135.547C70.1767 133.747 69.2017 131.816 67.6174 130.811C67.2751 130.653 66.9424 130.445 66.9845 130.028C67.2845 128.912 67.9501 129.09 68.2782 128.755C70.2751 126.758 69.5204 125.181 69.8603 123.062H69.8369C69.8369 123.062 71.0696 120.064 71.5501 118.468L72.1267 117.343ZM55.2306 143.682L55.1579 143.654L55.2306 143.682Z" fill="#B8CDB4"/>
<path d="M67.7321 125.409C67.6343 125.484 67.56 125.585 67.5185 125.701C67.4769 125.817 67.4698 125.943 67.4977 126.063C66.571 126.885 65.7681 127.837 65.1142 128.889C64.6618 129.124 64.3876 129.557 63.9915 129.881C63.886 129.98 63.8209 130.115 63.8087 130.26C63.6564 131.584 64.2774 133.03 65.3321 133.736C66.1993 134.174 66.4829 134.423 66.3916 134.521C66.3095 134.709 66.0166 134.624 65.8548 134.563C64.3243 134.329 63.1994 132.435 63.1524 130.715C59.2126 134.029 58.4321 137.455 60.9939 141.841C61.0595 142.328 60.6681 142.457 60.3213 141.871C58.6103 139.274 58.2939 136.202 59.7423 133.762C57.8673 134.875 56.379 136.295 54.9728 138.065C53.3532 140.137 53.979 141.581 53.5056 143.69L53.6274 143.924L53.1868 143.777L53.2384 143.695C52.479 141.857 53.2384 139.673 54.19 137.859C52.4134 138.955 50.4845 139.872 48.6306 140.77C47.8712 140.952 45.9212 142.565 45.3845 141.864C48.5415 139.949 52.3689 138.388 54.8861 136.558C52.5915 137.24 50.1986 136.708 47.9767 136.272C47.3697 136.174 46.7181 136.26 46.1673 135.864C47.3134 135.006 49.0056 135.794 50.2876 135.906C54.9892 136.952 57.3611 134.826 60.647 131.943C56.379 134.374 52.7368 130.235 49.6431 127.86C49.4814 127.785 49.2611 127.614 49.4462 127.326C51.0072 127.638 52.1532 129.121 53.3884 130.049C56.2666 132.627 60.265 132.351 62.8806 130.049C62.9392 129.581 63.4689 129.761 63.5697 129.461C63.6166 129.304 63.8766 128.976 63.5205 129.063C61.0032 129.355 59.447 127.523 58.1884 125.226C58.1753 125.194 58.1727 125.16 58.1808 125.126C58.189 125.093 58.2076 125.064 58.2338 125.042C58.26 125.02 58.2926 125.008 58.3265 125.006C58.3605 125.004 58.3943 125.013 58.4228 125.031C59.2994 125.791 59.9228 126.761 60.8439 127.495C63.6564 129.761 66.0423 126.4 67.0219 125.151C66.9259 125.299 67.7321 125.409 67.7321 125.409Z" fill="#2D3837"/>
<path d="M73.8609 68.3057H70.7859V92.5564H73.8609V68.3057Z" fill="#B53A25"/>
<path d="M86.0346 60.5735C84.7638 60.5513 83.5521 60.0322 82.6595 59.1275C81.7667 58.2227 81.2639 57.0043 81.2586 55.7333C81.2534 54.4623 81.7463 53.2397 82.6315 52.3277C83.5169 51.4156 84.7242 50.8866 85.9947 50.854H86.037C87.3078 50.8762 88.5194 51.3953 89.4121 52.3001C90.3049 53.2048 90.8077 54.4233 90.8129 55.6943C90.8181 56.9653 90.3253 58.1878 89.4399 59.0999C88.5547 60.0119 87.3474 60.5408 86.0768 60.5735H86.0346ZM86.0346 53.9267H86.0181C85.5554 53.9454 85.1179 54.1429 84.7979 54.4779C84.4778 54.8127 84.3002 55.2586 84.3024 55.7217C84.3044 56.1849 84.4862 56.6291 84.8093 56.961C85.1324 57.2928 85.5716 57.4864 86.0346 57.5009H86.0486C86.5115 57.4824 86.949 57.2851 87.2693 56.9505C87.5894 56.6159 87.7674 56.1701 87.7656 55.707C87.7638 55.2438 87.5823 54.7995 87.2594 54.4674C86.9366 54.1354 86.4975 53.9415 86.0346 53.9267Z" fill="#B53A25"/>
<path d="M73.8467 76.7591L70.7764 76.5998C70.8115 75.8967 71.7631 59.4624 81.7499 56.085L82.7342 58.9982C80.4842 59.7576 77.3788 62.0451 75.3467 68.6591C74.5547 71.2969 74.0518 74.0128 73.8467 76.7591Z" fill="#B53A25"/>
<path d="M59.426 60.5732H59.3837C58.0802 60.5675 56.8322 60.0452 55.9133 59.1205C54.9946 58.1958 54.4802 56.9444 54.4829 55.6408C54.4858 54.3373 55.0055 53.0881 55.9283 52.1673C56.851 51.2466 58.1013 50.7295 59.4048 50.7295C60.7084 50.7295 61.9587 51.2466 62.8814 52.1673C63.8042 53.0881 64.3239 54.3373 64.3266 55.6408C64.3295 56.9444 63.8151 58.1958 62.8962 59.1205C61.9775 60.0452 60.7294 60.5675 59.426 60.5732ZM59.426 53.9263C58.963 53.9412 58.5239 54.135 58.2011 54.4671C57.8782 54.7992 57.6968 55.2435 57.695 55.7066C57.6932 56.1698 57.8711 56.6156 58.1913 56.9502C58.5116 57.2847 58.9491 57.482 59.4118 57.5005H59.426C59.8887 57.4838 60.3269 57.2882 60.6484 56.9548C60.9699 56.6215 61.1495 56.1765 61.1495 55.7134C61.1495 55.2504 60.9699 54.8053 60.6484 54.472C60.3269 54.1387 59.8887 53.9431 59.426 53.9263Z" fill="#B53A25"/>
<path d="M70.7882 77.4084C70.6407 74.6113 70.1921 71.8382 69.45 69.1373C67.5492 62.4108 64.4813 60.0974 62.2429 59.3405L63.2273 56.4272C73.2351 59.8139 73.8398 76.6045 73.8609 77.3171L70.7882 77.4084Z" fill="#B53A25"/>
<path d="M73.5104 105.868L70.4355 105.882L70.5254 125.691L73.6004 125.677L73.5104 105.868Z" fill="#B53A25"/>
<path d="M85.7882 147.763H85.7461C85.1077 147.76 84.4761 147.632 83.8874 147.385C83.2987 147.139 82.7642 146.778 82.3147 146.325C81.4069 145.41 80.8998 144.171 80.9051 142.882C80.9104 141.593 81.4275 140.359 82.3429 139.451C83.2583 138.543 84.4968 138.036 85.7859 138.041H85.8282C87.0987 138.074 88.3061 138.603 89.1913 139.515C90.0767 140.427 90.5695 141.649 90.5642 142.92C90.5591 144.191 90.0561 145.41 89.1635 146.315C88.2708 147.219 87.0591 147.738 85.7882 147.761V147.763ZM85.7882 141.116C85.3172 141.117 84.8654 141.303 84.5311 141.635C84.1967 141.967 84.0067 142.417 84.0024 142.888C83.9985 143.361 84.1829 143.817 84.5147 144.154C84.8465 144.492 85.2986 144.684 85.7719 144.688H85.7882C86.2593 144.689 86.7115 144.503 87.0461 144.171C87.3806 143.84 87.5705 143.389 87.5742 142.918L89.1093 142.93L87.5742 142.918C87.5773 142.445 87.3926 141.989 87.0606 141.651C86.7284 141.313 86.276 141.121 85.8024 141.116H85.7882Z" fill="#B53A25"/>
<path d="M81.6233 142.965C71.653 139.595 70.4812 123.512 70.4365 122.835L73.5022 122.633C73.747 125.323 74.2846 127.978 75.1054 130.551C77.2147 137.024 80.3529 139.293 82.6053 140.054L81.6233 142.965Z" fill="#B53A25"/>
<path d="M73.4463 87.2424C73.5353 87.3308 73.6335 87.4093 73.7392 87.4769C75.1455 88.133 75.7361 89.5112 75.1455 90.962C74.6908 92.0846 74.2432 93.2096 73.8798 94.3651C73.6127 95.2112 73.0853 95.9706 73.0314 96.8869L72.9142 97.0369C73.0877 97.0885 72.9892 96.9338 73.0314 96.8846C73.1298 96.8706 73.2493 96.8682 73.2845 96.7627C73.6127 95.8253 74.2619 95.0519 74.7517 94.1964C75.2932 93.2588 75.8908 92.3401 76.4532 91.4072C76.6335 91.0916 76.8778 90.8172 77.1705 90.6017C77.463 90.386 77.7976 90.2342 78.1525 90.1557C78.7608 90.0065 79.4022 90.0747 79.9656 90.3487C80.5289 90.6227 80.9787 91.085 81.2369 91.6557C81.7619 92.9261 81.333 94.4682 80.1682 95.0307C78.3142 95.9143 76.5072 96.9057 74.5432 97.5385C74.2713 97.6275 74.1658 97.794 74.1142 98.1479C75.954 97.5971 77.7517 97.2761 79.5048 96.8096C80.4634 96.5588 81.4243 96.3291 82.3877 96.7815C83.6463 97.3745 84.1993 99.0245 83.5947 100.36C83.058 101.546 81.3142 102.214 80.079 101.68C78.4103 100.937 76.6267 100.396 74.8947 99.7299C74.7587 99.6783 74.6275 99.5869 74.4892 99.7299C74.4682 99.9315 74.6509 99.9643 74.7634 100.032C76.3174 101 77.8642 101.978 79.4322 102.92C81.1666 103.958 81.3517 106.25 79.7158 107.417C78.3985 108.355 76.5682 108.006 75.8439 106.529C75.333 105.484 74.8432 104.42 74.3627 103.367C73.9971 102.561 73.7229 101.682 73.1463 100.96C72.9424 101.167 73.0361 101.354 73.0806 101.544C73.4979 103.328 73.9267 105.109 74.3182 106.899C74.5806 108.092 74.2666 109.093 73.2282 109.832C72.3822 110.434 71.1916 110.432 70.158 109.778C69.4174 109.309 69.0026 108.242 69.1361 107.319C69.3048 106.147 69.8767 105.116 70.2353 104.01C70.5517 103.042 70.8963 102.081 71.2408 101.08C71.1603 101.072 71.0791 101.087 71.0075 101.125C70.9359 101.162 70.8768 101.22 70.8377 101.291C70.0337 102.627 69.2627 103.982 68.433 105.303C67.8729 106.196 67.3408 107.134 66.1103 107.305C65.5341 107.406 64.9404 107.316 64.4201 107.048C63.8998 106.781 63.4814 106.35 63.2285 105.823C62.9757 105.295 62.9025 104.699 63.02 104.126C63.1373 103.553 63.4391 103.034 63.879 102.648C64.3713 102.221 64.9924 102.027 65.5713 101.767C67.179 101.04 68.7892 100.321 70.3479 99.4674C70.1861 99.2565 70.0479 99.3385 69.9048 99.3737C67.8916 99.8869 65.876 100.391 63.8463 100.846C63.4131 100.953 62.9597 100.949 62.5283 100.835C62.0968 100.721 61.7009 100.5 61.3773 100.193C61.0536 99.8858 60.8126 99.5019 60.6764 99.0769C60.5402 98.6519 60.5132 98.1993 60.5979 97.7612C60.8884 96.1956 62.5619 95.183 63.9471 95.7104C65.7236 96.3807 67.5213 96.9971 69.3166 97.6112C69.5979 97.7072 69.7971 98.0799 70.254 97.8456C68.6932 96.7698 67.1064 95.8182 65.4986 94.9135C64.2284 94.1987 63.4244 93.0807 63.5416 91.8525C63.6306 90.9151 64.6595 89.7432 65.5384 89.5674C66.7947 89.333 68.1166 89.8745 68.5853 90.894C69.4384 92.6846 70.254 94.4917 71.0932 96.2846C71.1845 96.4815 71.208 96.7533 71.5501 96.8775C71.0932 94.8971 70.6408 93.0033 70.2236 91.1003C69.6658 88.5784 70.2634 88.1964 71.7564 87.2471C72.3166 87.1792 72.8837 87.0924 73.4463 87.2424ZM70.5493 98.5041C70.5246 98.7203 70.545 98.9391 70.6092 99.1471C70.6734 99.3549 70.78 99.5472 70.9223 99.7117C71.0646 99.8762 71.2395 100.01 71.4359 100.103C71.6323 100.196 71.8459 100.248 72.0634 100.255C72.8532 100.276 73.6361 99.5283 73.6782 98.7104C73.6787 98.2987 73.5203 97.9028 73.2361 97.6051C72.9519 97.3073 72.5637 97.1306 72.1525 97.1119C71.955 97.094 71.7559 97.1162 71.5672 97.1771C71.3785 97.238 71.2041 97.3364 71.0543 97.4665C70.9046 97.5965 70.7826 97.7555 70.6959 97.9338C70.6091 98.1121 70.5593 98.3061 70.5493 98.5041Z" fill="#F74700"/>
<path d="M72.2579 96.7727C71.984 96.7483 71.7083 96.7795 71.4468 96.8642C71.1854 96.949 70.9438 97.0856 70.7363 97.2659C70.5289 97.4462 70.36 97.6664 70.2396 97.9135C70.1192 98.1606 70.05 98.4294 70.036 98.704C69.9492 100.035 70.8634 101.092 72.1337 101.127C73.2305 101.158 74.3156 100.122 74.3742 98.9875C74.4329 97.8532 73.4438 96.829 72.2579 96.7727Z" fill="#B8CDB4"/>
</svg>
