<svg width="200" height="200" viewBox="0 0 200 200" fill="none" xmlns="http://www.w3.org/2000/svg">
<circle cx="100" cy="100" r="100" fill="white"/>
<path d="M90.3078 61.7064L90.3384 62.984C86.6779 63.5144 82.6544 64.5821 81.1929 68.2616C80.0261 71.0618 79.8777 75.4837 79.9719 78.8331C80.0756 81.3576 80.408 85.7914 80.5046 88.1909L86.0697 88.106C85.8953 81.8385 85.127 74.8001 87.5854 71.4484C89.0657 69.4354 91.8588 68.2828 96.2477 67.5591C96.2336 62.5408 96.2831 56.8437 96.309 51.8231C96.309 51.3257 96.2242 51.2385 95.9861 51.057L90.329 46.8896C90.1759 51.0264 90.1712 56.2261 90.3078 61.7064Z" fill="#B53A25"/>
<path d="M70.9869 143.17C69.9851 144.559 67.4984 146.093 66.1501 147.09C64.7351 148.122 63.175 148.939 61.5207 149.513C59.9498 150.054 58.3274 150.433 56.6792 150.642C55.1343 150.838 53.5789 150.938 52.0216 150.939C51.2862 150.939 50.2255 150.939 49.3416 150.909C50.7087 153.03 56.0452 155.225 56.0452 155.225C56.3548 155.378 56.6967 155.455 57.0422 155.449C59.2862 155.449 60.8136 155.578 64.5049 154.85C68.8537 153.994 73.839 151.656 76.4412 147.939L76.5497 147.786C74.334 146.501 72.7335 144.922 70.9869 143.17Z" fill="#B53A25"/>
<path d="M80.4151 124.014L79.8752 110.767C91.5783 110.692 108.986 110.628 122.751 110.685C122.751 112.153 122.763 113.077 122.779 114.527C122.779 114.527 108.109 114.527 109.726 114.572C111.343 114.616 94.0791 114.522 86.1946 114.56C85.6856 114.664 85.7964 115.147 85.8058 115.432L86.1192 129.836C86.1288 131.642 86.5252 133.425 87.2813 135.064C86.3667 134.675 85.4994 134.694 84.6885 133.987C84.6932 133.987 80.745 130.897 80.4151 124.014Z" fill="#B53A25"/>
<path d="M96.2595 140.87C96.0403 140.712 92.5354 138.183 90.9443 136.392C91.0598 141.648 91.3026 146.013 91.4698 151.241C88.0449 151.324 79.8233 149.184 76.7827 148.623C82.5978 154.072 89.7209 156.649 97.3178 156.434C97.1741 151.901 96.995 147.371 96.9124 142.836C96.8959 141.978 96.8488 141.25 96.2595 140.87Z" fill="#B53A25"/>
<path d="M160.658 58.7814C160.63 56.6081 160.451 53.4826 160.489 51.3636L154.542 46.7295C154.565 51.604 155.044 59.1561 154.857 61.6595C154.857 61.6595 151.376 61.4426 148.729 63.01C146.954 64.066 144.533 67.6276 144.045 70.4892C143.77 72.0991 143.211 77.5416 143.265 79.8586C143.308 86.6401 143.715 94.97 151.044 97.1811C150.866 96.9231 150.709 96.652 150.572 96.3702C150.122 92.1722 149.46 85.6996 149.497 81.4851C149.761 73.287 150.999 67.7313 160.515 67.6606C160.791 64.7119 160.557 61.7702 160.658 58.7814Z" fill="#B53A25"/>
<path d="M160.576 100.795C160.274 100.96 154.907 97.5892 154.657 97.5586C154.77 98.6404 154.598 100.064 153.769 100.858C153.689 100.969 153.587 101.061 153.47 101.13C153.353 101.2 153.222 101.244 153.087 101.262C148.51 102.117 143.812 106.108 143.871 111.041C143.899 113.523 143.786 115.852 143.803 118.435C143.826 121.757 143.685 127.937 145.118 130.77C146.162 132.837 148.889 134.431 150.103 134.629C150.129 134.629 149.596 124.795 149.818 116.849C149.997 110.384 153.434 108.059 160.003 105.405C160.993 104.184 160.628 102.16 160.576 100.795Z" fill="#B53A25"/>
<path d="M140.196 148.394C141.929 149.202 148.955 150.515 151.602 149.86C152.731 149.577 154.018 151.256 154.148 150.421C154.254 145.606 154.223 140.182 154.193 135.477C154.447 135.515 158.907 139.124 159.437 139.515C159.685 139.882 160.144 140.246 160.144 140.618C160.081 145.25 160.644 150.952 160.045 155.543C159.974 155.729 159.861 155.896 159.716 156.031C159.57 156.167 159.395 156.267 159.204 156.323C153.434 156.828 146.45 153.384 142.36 150.431C141.552 149.85 140.825 149.165 140.196 148.394Z" fill="#B53A25"/>
<path d="M136.406 145.856C135.579 145.181 134.504 143.583 133.481 142.473C128.406 147.793 119.454 151.708 112.008 151.039L117.311 155.14C124.734 156.361 134.839 153.792 139.704 147.892C138.551 147.303 137.448 146.622 136.406 145.856Z" fill="#B53A25"/>
<path d="M89.6056 46.7296C90.1642 46.7603 90.8431 46.9488 90.8124 47.8021C90.638 52.6389 90.6333 57.6289 90.7464 62.4397C90.7498 62.5898 90.7 62.736 90.606 62.8528C90.512 62.9698 90.3797 63.0497 90.2326 63.0785C78.8241 65.2872 80.3139 73.6713 80.3539 83.0433C80.3539 84.408 80.4034 86.2795 80.4882 87.543C80.4974 87.6841 80.5605 87.8162 80.6646 87.9119C80.7686 88.0076 80.9056 88.0595 81.0469 88.0569C84.4907 88.0025 104.59 88.1063 115.102 88.0403C117.082 87.9978 118.942 87.9837 120.92 87.9767C121.717 87.9767 122.011 87.6938 121.997 86.9207C121.686 76.7074 123.845 66.9678 112.031 62.9041C111.865 62.8468 111.722 62.7388 111.621 62.5954C111.519 62.4521 111.466 62.2804 111.468 62.1051C111.529 57.0632 111.381 52.0968 111.373 47.0573C111.374 46.9 111.432 46.7482 111.536 46.6309C111.641 46.5135 111.785 46.4388 111.942 46.4208C119.72 45.5746 128.25 49.5582 132.418 55.9223C132.981 56.7804 133.46 56.8864 134.084 55.9058C137.462 50.6 141.684 48.6884 146.695 47.1421C149.151 46.3855 151.826 46.8239 153.7 46.8286C154.601 46.8286 154.945 47.029 154.921 47.9812C154.876 49.9141 154.947 51.8517 154.968 53.7844C154.968 57.2164 154.952 60.2995 154.933 61.9849C154.929 62.166 154.858 62.3392 154.732 62.47C154.607 62.601 154.437 62.6801 154.256 62.692C145.554 63.2789 144.151 68.7709 143.819 76.4811C143.871 85.596 142.975 96.2313 154.426 97.7327C154.552 97.7514 154.667 97.8126 154.753 97.9062C154.839 97.9998 154.89 98.1198 154.898 98.2466C154.914 98.6261 154.987 99.2484 155.004 99.6255C155.03 100.274 154.9 100.63 154.278 100.804C152.953 101.195 149.618 102.19 148.25 103.453C146.282 105.273 144.048 108.483 144.116 111.831C143.991 116.488 143.968 121.151 143.986 125.813C143.986 125.813 144.722 134.36 153.5 135.477C154.226 135.569 154.466 135.725 154.471 136.594C154.502 141.224 154.633 145.742 154.351 150.537C154.332 150.834 154.134 151.3 153.752 151.362C152.975 151.456 152.19 151.464 151.411 151.385C145.283 151.095 140.359 149.059 137.599 146.935C136.656 146.209 134.839 144.361 133.889 143.315C133.818 143.235 133.732 143.172 133.635 143.128C133.539 143.083 133.434 143.06 133.328 143.058C133.222 143.056 133.117 143.076 133.019 143.117C132.921 143.158 132.833 143.219 132.759 143.296C126.886 149.346 120.696 152.328 111.951 151.044C111.887 146.216 111.746 141.615 111.741 136.752C111.741 136.064 112.031 135.739 112.493 135.56C114.657 134.716 121.339 135.128 122.211 126.343C122.372 121.07 122.155 116.729 122.211 111.444C122.171 111.321 121.938 111.086 121.764 111.159C108.022 111.098 92.0004 111.135 80.7924 111.241C80.3374 111.241 80.1088 111.359 80.1111 111.892C80.1323 114.937 80.3846 117.231 80.4482 120.276C80.6368 123.432 80.8631 126.237 82.1429 129.344C83.3898 132.373 85.7635 134.586 89.8909 135.593C90.7206 135.795 91.1707 136.264 91.2179 137.217C91.4395 141.747 91.4842 146.897 91.6257 151.428C87.6728 151.508 83.7529 151.468 79.9155 150.065C76.031 148.651 74.0628 146.567 71.4418 143.937C71.3429 143.838 71.2235 143.763 71.0919 143.716C70.9604 143.669 70.82 143.652 70.6811 143.666C70.5422 143.68 70.4081 143.725 70.2885 143.797C70.1689 143.869 70.0669 143.967 69.9897 144.083C65.16 151.385 56.698 151.437 50.1617 151.385C49.2354 151.385 49.134 151.041 49.0963 150.115C48.9054 145.441 48.8488 140.712 48.7592 136.022C48.7504 135.917 48.7634 135.812 48.7975 135.714C48.8316 135.615 48.8861 135.524 48.9573 135.447C49.0286 135.371 49.1151 135.31 49.2113 135.269C49.3075 135.228 49.4113 135.207 49.5159 135.208C54.7793 134.973 58.8924 131.397 58.9632 127.324C58.9938 125.554 59.074 123.218 59.0717 121.445C59.0717 112.033 59.5925 105.026 48.7003 101.219C48.5235 101.158 48.7003 99.4393 48.6438 98.6638C48.6404 98.6203 48.6529 98.577 48.6789 98.542C48.7049 98.5069 48.7426 98.4824 48.7852 98.4728C54.0485 97.3179 58.124 92.3963 58.685 87.1328C58.4305 78.0792 60.6556 64.936 49.0822 62.9772C48.7998 62.931 48.541 62.7914 48.3474 62.5807C48.1538 62.37 48.0365 62.1004 48.0144 61.8151C47.8494 58.3195 47.8588 51.6795 47.9107 47.8775C47.9343 46.2535 48.4717 46.1168 49.8412 46.0956C51.8286 46.034 53.8179 46.1191 55.7929 46.3501C60.4458 46.9488 65.8813 51.3472 68.5566 56.25C68.9621 56.9971 69.3627 56.8205 69.6197 56.1864C72.1842 50.4373 78.7086 47.1468 84.6109 46.805L89.6056 46.7296Z" fill="#B8CDB4"/>
<path d="M134.499 47.7881L131.426 47.7934L131.514 98.5396L134.588 98.5342L134.499 47.7881Z" fill="#A88771"/>
<path d="M146.763 60.2002C145.474 60.2055 144.236 59.6985 143.32 58.7908C142.405 57.8831 141.888 56.649 141.883 55.3598C141.877 54.0708 142.384 52.8325 143.292 51.9172C144.2 51.002 145.434 50.4848 146.723 50.4795H146.777C148.059 50.4801 149.288 50.9869 150.198 51.8897C151.108 52.7925 151.625 54.0181 151.635 55.2997C151.645 56.588 151.143 57.8275 150.239 58.7461C149.336 59.6649 148.106 60.1878 146.817 60.2002H146.763ZM146.777 53.5649H146.761C146.314 53.6034 145.897 53.8087 145.594 54.1401C145.292 54.4714 145.125 54.9045 145.127 55.3533C145.129 55.8021 145.3 56.2337 145.606 56.5622C145.912 56.8908 146.33 57.0923 146.777 57.1265C147.012 57.1247 147.244 57.0766 147.46 56.9851C147.675 56.8936 147.871 56.7604 148.036 56.5931C148.2 56.4258 148.33 56.2278 148.418 56.0103C148.506 55.7928 148.55 55.5602 148.547 55.3257C148.541 54.8592 148.352 54.4138 148.021 54.0848C147.69 53.7558 147.244 53.5692 146.777 53.5649Z" fill="#A88771"/>
<path d="M134.574 76.3844L131.51 76.2266C131.546 75.5194 132.498 59.0904 142.483 55.7197L143.468 58.6307C139.395 60.0097 137.203 64.6461 136.081 68.2949C135.288 70.929 134.783 73.6414 134.574 76.3844Z" fill="#A88771"/>
<path d="M134.244 101.427L131.17 101.433L131.278 153.004L134.352 152.998L134.244 101.427Z" fill="#A88771"/>
<path d="M146.518 147.39H146.476C145.187 147.384 143.952 146.867 143.045 145.952C142.137 145.037 141.63 143.798 141.635 142.509C141.641 141.22 142.158 139.986 143.073 139.078C143.988 138.171 145.227 137.664 146.516 137.669H146.558C147.846 137.682 149.077 138.205 149.98 139.124C150.883 140.042 151.385 141.281 151.376 142.569C151.365 143.851 150.849 145.077 149.939 145.98C149.029 146.882 147.8 147.389 146.518 147.39ZM146.518 140.743C146.047 140.744 145.596 140.931 145.262 141.262C144.928 141.594 144.738 142.044 144.734 142.515C144.73 142.989 144.914 143.444 145.246 143.782C145.578 144.12 146.03 144.312 146.504 144.316C146.739 144.322 146.972 144.279 147.19 144.191C147.408 144.102 147.605 143.97 147.77 143.802C147.938 143.639 148.072 143.444 148.164 143.228C148.255 143.012 148.303 142.78 148.305 142.546C148.307 142.073 148.123 141.618 147.791 141.281C147.459 140.943 147.008 140.751 146.534 140.745L146.518 140.743Z" fill="#A88771"/>
<path d="M132.844 160H132.802C131.513 159.994 130.279 159.477 129.371 158.562C128.463 157.647 127.956 156.408 127.962 155.119C127.967 153.83 128.484 152.596 129.399 151.688C130.315 150.781 131.553 150.274 132.842 150.279H132.885C134.173 150.292 135.403 150.815 136.306 151.734C137.209 152.652 137.711 153.891 137.702 155.179C137.692 156.461 137.175 157.687 136.266 158.589C135.356 159.492 134.126 159.999 132.844 160ZM132.844 153.353C132.374 153.354 131.922 153.541 131.588 153.872C131.254 154.204 131.064 154.654 131.06 155.125C131.056 155.599 131.241 156.054 131.573 156.392C131.904 156.73 132.357 156.922 132.83 156.926C133.065 156.932 133.299 156.889 133.517 156.801C133.735 156.712 133.932 156.58 134.096 156.412C134.264 156.249 134.398 156.053 134.49 155.838C134.582 155.622 134.63 155.39 134.631 155.156C134.634 154.683 134.449 154.228 134.117 153.89C133.786 153.553 133.334 153.361 132.861 153.355L132.844 153.353Z" fill="#A88771"/>
<path d="M132.844 49.7208H132.802C132.164 49.7181 131.532 49.5898 130.944 49.3431C130.355 49.0964 129.821 48.7362 129.371 48.283C128.922 47.8298 128.566 47.2926 128.324 46.7019C128.082 46.1112 127.959 45.4786 127.962 44.8404C127.964 44.2021 128.093 43.5706 128.339 42.9819C128.586 42.3932 128.946 41.8589 129.399 41.4094C129.853 40.96 130.39 40.6042 130.981 40.3623C131.571 40.1205 132.204 39.9974 132.842 40H132.885C134.173 40.0131 135.404 40.5366 136.307 41.4556C137.21 42.3747 137.712 43.6143 137.702 44.9028C137.692 46.1845 137.176 47.4102 136.266 48.3128C135.356 49.2153 134.126 49.7214 132.844 49.7208ZM132.844 43.0737C132.371 43.0718 131.915 43.2583 131.579 43.592C131.243 43.9258 131.053 44.3795 131.051 44.8533C131.049 45.3272 131.235 45.7824 131.569 46.1188C131.903 46.4552 132.356 46.6452 132.83 46.6471C133.065 46.654 133.299 46.6121 133.517 46.524C133.735 46.436 133.932 46.3037 134.096 46.1356C134.264 45.9716 134.398 45.7759 134.49 45.5599C134.582 45.3438 134.63 45.1117 134.631 44.8769C134.634 44.405 134.451 43.9509 134.121 43.6133C133.792 43.2757 133.342 43.0818 132.87 43.0737H132.844Z" fill="#A88771"/>
<path d="M142.351 142.593C132.382 139.22 131.209 123.144 131.164 122.463L134.228 122.258C134.228 122.407 135.308 136.967 143.331 139.682L142.351 142.593Z" fill="#A88771"/>
<path d="M95.4559 125.53H95.4136C94.1249 125.519 92.8934 124.997 91.9899 124.078C91.0864 123.159 90.5849 121.918 90.5956 120.63C90.6081 119.348 91.1253 118.123 92.0353 117.221C92.9452 116.318 94.1744 115.811 95.4559 115.81H95.496C96.7847 115.822 98.0158 116.345 98.9191 117.264C99.8223 118.184 100.324 119.424 100.314 120.712C100.304 121.994 99.7878 123.22 98.8777 124.122C97.9676 125.025 96.7376 125.531 95.4559 125.53ZM95.4559 118.883C95.1037 118.883 94.7593 118.987 94.4661 119.182C94.1727 119.378 93.9438 119.655 93.8078 119.98C93.6717 120.305 93.6348 120.663 93.7016 121.009C93.7683 121.355 93.9359 121.673 94.1831 121.924C94.347 122.091 94.5424 122.225 94.758 122.316C94.9736 122.407 95.2053 122.455 95.4394 122.457C95.6745 122.462 95.9084 122.42 96.1265 122.332C96.3445 122.244 96.5423 122.112 96.7075 121.945C96.8748 121.781 97.0081 121.585 97.0994 121.369C97.1908 121.153 97.2387 120.921 97.2402 120.686C97.2441 120.213 97.0598 119.757 96.7279 119.419C96.3962 119.081 95.9437 118.888 95.4701 118.883H95.4559Z" fill="#A88771"/>
<path d="M95.4559 104.33H95.4136C94.1249 104.319 92.8934 103.796 91.9899 102.877C91.0864 101.958 90.5849 100.718 90.5956 99.4296C90.6081 98.1482 91.1253 96.9233 92.0353 96.0208C92.9452 95.1183 94.1744 94.6112 95.4559 94.6094H95.496C96.7847 94.6218 98.0158 95.1451 98.9191 96.0642C99.8223 96.9835 100.324 98.2235 100.314 99.5122C100.304 100.794 99.7878 102.02 98.8777 102.922C97.9676 103.825 96.7376 104.331 95.4559 104.33ZM95.4559 97.6831C95.1037 97.6831 94.7593 97.7871 94.4661 97.9823C94.1727 98.1774 93.9438 98.4549 93.8078 98.7799C93.6717 99.1047 93.6348 99.4627 93.7016 99.8086C93.7683 100.154 93.9359 100.473 94.1831 100.724C94.347 100.891 94.5424 101.024 94.758 101.116C94.9736 101.207 95.2053 101.255 95.4394 101.256C95.6747 101.263 95.9089 101.222 96.1271 101.133C96.3454 101.045 96.5429 100.913 96.7075 100.745C96.8748 100.58 97.0081 100.385 97.0994 100.169C97.1908 99.9527 97.2387 99.7208 97.2402 99.4862C97.2441 99.0125 97.0598 98.5567 96.7279 98.2187C96.3962 97.8806 95.9437 97.688 95.4701 97.6831H95.4559Z" fill="#A88771"/>
<path d="M131.807 97.749H98.9185V100.823H131.807V97.749Z" fill="#A88771"/>
<path d="M99.298 122.341C98.6528 122.341 98.0089 122.283 97.3745 122.166L97.9309 119.142C101.556 119.812 105.492 117.754 107.958 113.905C108.969 112.325 109.749 110.501 110.574 108.571C111.216 107.071 111.878 105.523 112.665 104.078C115.119 99.5806 118.506 97.3532 121.728 98.1215L121.021 101.11C118.916 100.608 116.66 103.189 115.364 105.551C114.645 106.866 114.042 108.281 113.401 109.777C112.564 111.741 111.696 113.768 110.546 115.562C107.817 119.823 103.557 122.341 99.298 122.341Z" fill="#A88771"/>
<path d="M130.582 85.9001L131.713 86.6402C132.071 88.2619 132.42 89.9685 132.656 91.3215C133.08 91.2673 133.508 91.2382 133.936 91.2342L133.346 90.3951C133.243 89.5842 133.061 88.9808 132.682 86.7864C132.631 86.4669 132.615 86.1428 132.635 85.82C132.748 83.7362 132.859 81.6525 133.002 79.5712C133.189 76.9148 133.446 74.2606 133.594 71.6018C133.7 70.1196 133.385 68.6376 132.687 67.3261C132.215 66.4822 131.701 65.6265 130.565 65.6949C129.429 65.7632 129.005 66.6661 128.606 67.5476C128.441 67.9153 128.243 68.2713 128.06 68.6319L127.729 68.5918C127.602 67.7527 127.204 62.5458 126.961 60.8134C126.546 57.8057 125.952 54.8357 123.107 52.9665C123.107 52.9665 121.118 51.9978 120.364 53.405C120.116 53.8764 119.689 54.3148 119.609 54.8193C119.454 55.762 119.48 56.7473 119.432 57.7162C119.432 57.9377 119.432 58.1592 119.418 58.3808L119.199 58.4208C118.869 57.5205 118.52 56.6224 118.209 55.715C117.715 54.233 116.862 52.8968 115.725 51.8257C114.938 51.0742 114.007 50.4904 112.988 50.1097C110.93 49.4026 109.099 50.9017 109.231 53.0301C109.243 53.2329 109.271 53.4356 109.325 53.973C109.022 53.7245 108.697 53.5021 108.356 53.3083C107.526 52.9233 106.67 52.5971 105.794 52.3324C103.838 51.821 102.153 53.2942 102.534 55.2128C102.69 55.9131 103.022 56.5621 103.498 57.0985C104.187 57.8811 105.047 58.5128 105.832 59.22C106.028 59.392 106.216 59.5712 106.464 59.7975C105.771 59.9931 105.179 60.0898 104.651 60.3255C103.168 60.9902 102.881 62.6259 104.09 63.6725C104.587 64.103 105.168 64.4243 105.797 64.6154C107.06 64.9854 108.361 65.2447 109.655 65.504C111.305 65.834 112.99 66.0791 114.643 66.4468C115.289 66.5859 116.005 66.7556 116.359 67.4981C115.638 67.9696 114.904 67.6773 114.193 67.6867C113.057 67.6593 111.92 67.7089 110.791 67.8351C109.813 67.979 108.967 68.5046 108.734 69.5606C108.545 70.428 109.141 71.3473 110.16 71.8988C110.287 71.971 110.421 72.031 110.56 72.078C112.241 72.5871 113.907 73.1504 115.609 73.5795C117.311 74.0085 118.999 74.2583 120.686 74.6307C121.427 74.7934 122.155 75.0338 122.619 75.7881C122.224 75.8914 121.814 75.9225 121.408 75.8799C120.531 75.7904 119.659 75.5688 118.784 75.5806C117.356 75.6019 116.651 76.8652 117.445 77.999C117.849 78.5524 118.385 78.9943 119.006 79.2837C120.203 79.8419 121.438 80.3145 122.702 80.6979C125.884 81.6267 128.545 83.3096 130.582 85.9001Z" fill="#B53A25"/>
<path d="M130.117 83.3918C129.882 83.0971 129.839 82.6989 129.71 82.35C129.7 82.3214 129.687 82.2943 129.669 82.2698C129.314 82.0323 128.973 81.775 128.646 81.499C128.162 81.0667 127.621 80.7019 127.039 80.4148C125.612 79.7869 124.146 79.2515 122.65 78.812L122.582 78.7931C122.497 78.7838 122.415 78.7562 122.342 78.7123C122.268 78.6684 122.205 78.609 122.157 78.5385C122.119 78.4533 122.099 78.3609 122.099 78.2675C122.099 78.1739 122.119 78.0816 122.157 77.9964C122.176 77.9376 122.217 77.8888 122.272 77.86C122.327 77.8314 122.39 77.8254 122.45 77.8432C122.685 77.9069 122.921 77.9658 123.14 78.0271C124.868 78.4843 126.638 78.9533 128.206 79.9882C128.441 80.1131 128.677 80.2498 128.913 80.4007C128.18 78.8355 127.449 77.3883 126.683 75.9952C126.342 75.4004 125.871 74.891 125.304 74.5055C124.022 73.5466 122.546 72.8803 120.979 72.5538C118.888 72.1484 116.8 71.7335 114.78 71.3304C114.697 71.314 114.615 71.3022 114.532 71.2904C114.186 71.2673 113.855 71.1464 113.575 70.9416C113.551 70.9315 113.528 70.9179 113.507 70.9015C113.469 70.8685 113.442 70.824 113.431 70.7749C113.42 70.7257 113.425 70.6742 113.445 70.6281C113.472 70.5695 113.52 70.5233 113.58 70.4984L113.41 70.449L113.627 70.4749C113.88 70.3723 114.161 70.3582 114.424 70.4348L114.478 70.4465C114.89 70.5244 115.303 70.5974 115.715 70.6705C116.349 70.7813 117.005 70.9062 117.648 71.0334C118.108 71.1301 118.591 71.2197 119.039 71.3069C121.012 71.6793 123.046 72.0612 124.896 73.2185L124.189 72.2969C122.655 70.2627 121.068 68.1602 119.322 66.2344C118.653 65.502 117.839 64.9168 116.932 64.5161C114.937 63.5992 112.66 63.1018 109.768 62.9439H109.582C108.53 62.9355 107.486 62.759 106.49 62.4206C106.442 62.403 106.402 62.3705 106.374 62.3281C106.346 62.2857 106.333 62.2355 106.336 62.1849C106.342 62.133 106.365 62.0845 106.401 62.0469C106.437 62.0094 106.485 61.985 106.537 61.9774C107.105 61.9008 107.681 61.9127 108.246 62.0128C108.519 62.0573 108.796 62.0817 109.073 62.0859C110.197 62.086 111.319 62.1647 112.432 62.3216C113.945 62.515 115.378 62.9981 116.767 63.4766L116.738 63.453L116.684 63.4011C114.19 61.026 111.486 58.8824 108.604 56.9969C108.441 56.8931 108.267 56.7966 108.085 56.6975C107.588 56.4264 107.074 56.146 106.739 55.6227C106.715 55.6083 106.694 55.5891 106.678 55.5661C106.655 55.5348 106.64 55.4978 106.635 55.4588C106.631 55.4199 106.637 55.3805 106.652 55.3445V55.3163C106.669 55.2746 106.698 55.2388 106.735 55.213C106.771 55.187 106.815 55.1722 106.86 55.1701C106.905 55.167 106.95 55.1768 106.989 55.1985C107.229 55.2185 107.458 55.306 107.649 55.4506L107.744 55.5119C110.184 56.9925 112.523 58.6344 114.744 60.4265C115.866 61.3693 116.939 62.3688 118.129 63.5473C118.072 63.3964 118.016 63.2456 117.962 63.0971C117.584 62.0929 117.231 61.1454 116.866 60.2168C116.521 59.4037 116.119 58.616 115.663 57.8596C115.392 57.3882 115.11 56.8814 114.857 56.377C114.422 55.5344 113.928 54.723 113.379 53.9492C113.174 53.6428 112.962 53.3292 112.745 52.9946C112.719 52.9515 112.706 52.9009 112.711 52.8503C112.715 52.7999 112.735 52.752 112.769 52.7141C112.809 52.6706 112.863 52.6437 112.922 52.6387C112.894 52.608 112.868 52.5749 112.84 52.542L112.962 52.6387C112.993 52.639 113.023 52.6454 113.052 52.6575C113.633 52.891 114.124 53.3039 114.454 53.836C114.709 54.2061 114.952 54.5832 115.185 54.9627C115.223 55.0217 115.258 55.0829 115.293 55.1442C115.921 56.1858 116.472 57.2712 116.943 58.3923C117.002 58.529 117.054 58.6682 117.108 58.8072C117.344 59.3211 117.58 59.8396 117.794 60.3605C117.825 60.4147 117.853 60.4689 117.884 60.5208C118.044 60.7991 118.171 61.0949 118.263 61.4024C118.412 61.8384 118.553 62.2486 118.893 62.5479C118.935 62.5859 118.961 62.6378 118.968 62.694C118.997 62.9448 119.045 63.1931 119.112 63.4365C119.484 64.2427 119.885 65.0346 120.333 65.7936C120.58 66.1355 120.844 66.4701 121.113 66.8119C121.292 67.0382 121.469 67.2645 121.643 67.4908C122.256 68.3016 122.921 69.0983 123.565 69.8667L124.196 70.6305C124.252 70.702 124.296 70.7816 124.328 70.8662C124.345 70.9058 124.364 70.9442 124.385 70.9817C124.375 70.7938 124.336 70.6085 124.269 70.4324C124.212 70.2636 124.171 70.09 124.144 69.9139C124.006 68.3819 123.97 66.8424 124.038 65.3058L124.052 64.7306C124.116 61.5909 123.654 58.8896 122.638 56.4808L122.603 56.4076C122.537 56.3138 122.501 56.2019 122.501 56.0871C122.501 55.9723 122.537 55.8603 122.603 55.7665C122.629 55.73 122.665 55.7016 122.707 55.685C122.749 55.6682 122.794 55.6638 122.838 55.6722C123.31 55.7382 123.454 56.1106 123.546 56.3557C124.335 58.3569 125.042 60.3346 125.026 62.522L125.012 63.9904C124.993 65.6404 124.976 67.3399 125.012 69.0134C125.054 70.8991 125.516 72.4454 126.426 73.7701C127.083 74.7045 127.642 75.7035 128.095 76.7518C128.143 76.8649 128.211 76.9686 128.295 77.0582C128.361 77.1289 128.399 77.1336 128.425 77.1266C128.427 77.1023 128.427 77.0779 128.425 77.0535C128.494 76.1315 128.684 75.2225 128.991 74.35C129.468 72.9198 129.835 71.4549 130.087 69.968L130.108 69.8266C130.109 69.66 130.146 69.4954 130.214 69.3434C130.282 69.1913 130.381 69.0549 130.504 68.9427C130.551 68.9025 130.612 68.8825 130.674 68.8869C130.735 68.8913 130.793 68.9198 130.834 68.9664C130.953 69.1024 131.034 69.2675 131.07 69.4449C131.106 69.6223 131.094 69.806 131.037 69.9774C131.019 70.0623 131.006 70.1481 130.999 70.2344C130.884 71.5516 130.605 72.8495 130.169 74.0977C129.226 76.5373 129.226 78.812 130.169 81.0489L130.386 81.5675C130.386 81.5675 131.96 85.7819 130.117 83.3918Z" fill="#2D3837"/>
<path d="M134.072 87.2435C134.161 87.3282 134.259 87.4026 134.365 87.4651C135.779 88.1227 136.364 89.5016 135.779 90.9513C135.324 92.0733 134.876 93.2 134.513 94.3525C134.247 95.1988 133.719 95.9577 133.665 96.8747L133.547 97.0255C133.721 97.0774 133.622 96.9219 133.665 96.8723C133.761 96.8582 133.882 96.8559 133.919 96.7498C134.247 95.8069 134.895 95.0409 135.385 94.1852C135.928 93.2423 136.524 92.3278 137.087 91.3967C137.269 91.0851 137.513 90.8147 137.805 90.6029C138.097 90.3909 138.43 90.2423 138.782 90.1664C139.39 90.0171 140.031 90.0853 140.594 90.3591C141.157 90.6329 141.607 91.095 141.865 91.6655C142.391 92.9359 141.962 94.494 140.795 95.0409C138.945 95.9248 137.137 96.9266 135.173 97.5488C134.902 97.6361 134.798 97.8058 134.747 98.1593C136.585 97.6077 138.384 97.2848 140.147 96.8205C141.106 96.5683 142.068 96.349 143.03 96.7921C144.288 97.3839 144.842 99.0338 144.239 100.37C143.701 101.549 141.957 102.225 140.734 101.69C139.032 100.945 137.255 100.396 135.522 99.7315C135.385 99.6796 135.253 99.5877 135.117 99.7315C135.093 99.9319 135.277 99.9672 135.39 100.033C136.944 101 138.49 101.978 140.06 102.921C141.792 103.96 141.978 106.251 140.342 107.418C139.025 108.361 137.193 108.007 136.47 106.529C135.961 105.483 135.47 104.427 134.987 103.369C134.622 102.562 134.351 101.683 133.773 100.962C133.568 101.167 133.662 101.356 133.707 101.544C134.124 103.328 134.553 105.11 134.945 106.899C135.206 108.095 134.893 109.094 133.856 109.832C133.009 110.433 131.817 110.43 130.791 109.777C130.051 109.306 129.636 108.243 129.768 107.319C129.938 106.14 130.509 105.115 130.869 104.019C131.185 103.048 131.529 102.089 131.876 101.089C131.795 101.08 131.714 101.095 131.642 101.132C131.57 101.169 131.51 101.226 131.47 101.297C130.669 102.635 129.896 103.991 129.066 105.304C128.505 106.197 127.975 107.135 126.744 107.307C126.167 107.41 125.571 107.32 125.049 107.052C124.528 106.784 124.108 106.352 123.855 105.823C123.602 105.294 123.53 104.696 123.649 104.122C123.768 103.547 124.072 103.028 124.514 102.643C125.007 102.216 125.629 102.023 126.207 101.761C127.814 101.033 129.424 100.314 130.982 99.4605C130.822 99.2483 130.683 99.3331 130.542 99.3685C128.526 99.88 126.511 100.387 124.481 100.839C124.048 100.947 123.595 100.943 123.163 100.829C122.732 100.715 122.336 100.495 122.012 100.188C121.688 99.8806 121.447 99.4968 121.31 99.0719C121.174 98.6469 121.147 98.1945 121.231 97.7563C121.523 96.1887 123.197 95.1799 124.58 95.7032C126.355 96.3749 128.154 96.9925 129.95 97.6054C130.23 97.6997 130.421 98.0768 130.893 97.8411C129.33 96.7662 127.744 95.8163 126.136 94.9112C124.866 94.2041 124.062 93.0774 124.18 91.847C124.269 90.9041 125.297 89.7256 126.176 89.5605C127.433 89.3248 128.745 89.8694 129.24 90.8877C130.094 92.6767 130.909 94.4845 131.746 96.2831C131.838 96.481 131.862 96.7545 132.206 96.8747C131.748 94.897 131.296 93.0019 130.876 91.0997C130.32 88.5753 130.919 88.1958 132.411 87.2459C132.948 87.1799 133.509 87.0927 134.072 87.2435ZM131.176 98.5059C131.151 98.7218 131.172 98.9404 131.236 99.148C131.3 99.3556 131.407 99.5477 131.549 99.7121C131.691 99.8763 131.866 100.009 132.062 100.103C132.258 100.196 132.472 100.248 132.689 100.255C133.481 100.278 134.264 99.5288 134.306 98.7109C134.306 98.2991 134.147 97.9034 133.862 97.6058C133.578 97.3081 133.19 97.1315 132.778 97.1128C132.581 97.0951 132.382 97.1174 132.193 97.1785C132.005 97.2395 131.83 97.338 131.68 97.4681C131.531 97.5982 131.409 97.7571 131.322 97.9355C131.236 98.1138 131.186 98.3078 131.176 98.5059Z" fill="#F74700"/>
<path d="M132.885 96.7734C132.611 96.7487 132.335 96.7795 132.073 96.8639C131.811 96.9484 131.57 97.0849 131.362 97.2652C131.154 97.4455 130.985 97.6659 130.865 97.9132C130.745 98.1603 130.676 98.4293 130.662 98.7039C130.574 100.036 131.491 101.092 132.76 101.127C133.856 101.158 134.94 100.123 134.999 98.9892C135.058 97.8554 134.07 96.83 132.885 96.7734Z" fill="#2D3837"/>
<path d="M70.1335 117.339C70.1075 117.485 70.2725 116.271 70.3692 115.781C70.018 114.732 70.1216 113.659 70.2112 112.587C70.2725 111.88 69.9495 111.781 69.3933 112.115C69.3853 112.123 69.3794 112.132 69.376 112.143C69.3725 112.153 69.3717 112.164 69.3736 112.175C69.3754 112.185 69.38 112.195 69.3867 112.204C69.3934 112.213 69.4021 112.219 69.4121 112.224C69.3262 112.595 69.319 112.981 69.3909 113.355C69.3517 113.417 69.3309 113.488 69.3309 113.561C69.3309 113.635 69.3517 113.706 69.3909 113.768C69.2259 115.003 69.0515 116.238 68.8841 117.475C68.5918 118.475 68.2289 119.448 67.8494 120.415L67.8872 120.434C67.6139 121.1 67.3779 121.782 67.18 122.475L66.5035 122.781L66.5765 122.642C66.5058 122.546 66.2466 122.663 66.1405 122.604C65.3721 123.09 64.3726 122.734 63.5241 122.706C63.2169 122.68 62.9076 122.716 62.6146 122.812C62.3216 122.908 62.0509 123.062 61.8187 123.265C61.5865 123.467 61.3974 123.715 61.2627 123.992C61.1281 124.27 61.0507 124.571 61.035 124.879C61.0114 125.143 61.1529 125.49 60.8606 125.638C60.5282 125.806 60.2948 125.483 60.0638 125.308C58.5436 123.88 55.0644 122.329 54.3219 125.233C53.9401 126.586 55.3119 127.441 56.0285 128.372C57.0208 131.043 52.1676 126.607 51.5924 126.404C48.9996 124.179 44.151 125.327 45.6808 129.395C45.9613 131.241 49.4687 132.877 48.844 134.291C47.9012 135.085 44.6578 133.075 43.062 133.636C41.4144 133.942 40.745 135.29 41.5087 136.742C43.6702 139.484 42.3832 139.297 40.4621 141.393C39.4274 142.399 40.2618 144.285 41.6666 144.368C43.5523 144.839 46.296 142.482 47.6443 144.412C48.474 145.791 49.9542 147.434 51.4698 146.666C52.778 146.18 53.3367 145.266 53.2778 143.698C53.3297 143.493 53.214 143.123 53.4215 143.067C54.8783 142.685 55.4251 144.424 56.4222 145.568C57.4428 146.755 59.5642 146.435 60.507 145.209C61.3532 144.191 61.556 142.748 61.4499 141.426C60.8818 139.305 60.5376 135.837 63.4793 136.582L64.4764 136.995C65.735 138.102 67.9955 137.846 68.2171 135.557L68.2737 135.54C68.1652 133.74 67.1918 131.809 65.6054 130.803C65.2636 130.647 64.9313 130.44 64.9713 130.02C65.273 128.905 65.9378 129.077 66.2654 128.749C68.2619 126.753 67.51 125.174 67.847 123.055H67.8259C67.8259 123.055 69.0586 120.056 69.5395 118.461L70.1335 117.339ZM53.2353 143.682L53.1623 143.656L53.2353 143.682Z" fill="#B53A25"/>
<path d="M65.735 125.407C65.6375 125.483 65.5635 125.585 65.5218 125.701C65.48 125.817 65.4722 125.942 65.4993 126.063C64.5726 126.886 63.7699 127.838 63.1163 128.891C62.6637 129.127 62.3903 129.561 61.9943 129.884C61.8899 129.984 61.8247 130.119 61.8105 130.263C61.6596 131.588 62.2819 133.033 63.3355 133.74C64.2029 134.178 64.4834 134.423 64.3961 134.522C64.3113 134.711 64.019 134.626 63.8587 134.565C62.3267 134.329 61.2024 132.443 61.1552 130.718C57.2141 134.032 56.4409 137.459 58.996 141.843C59.062 142.329 58.6708 142.459 58.3243 141.874C56.613 139.281 56.2972 136.205 57.7444 133.763C55.8728 134.885 54.3785 136.3 52.9784 138.065C51.359 140.137 51.986 141.572 51.5122 143.684L51.6325 143.908L51.1917 143.762L51.2435 143.677C50.4845 141.841 51.2435 139.656 52.1864 137.843C50.3847 138.907 48.5295 139.878 46.6283 140.752C45.8693 140.936 43.9176 142.548 43.3826 141.848C46.5458 139.932 50.3714 138.374 52.8911 136.535C50.5977 137.219 48.2146 136.688 45.9825 136.252C45.3743 136.153 44.7238 136.241 44.1722 135.845C45.3178 134.984 47.0007 135.772 48.2924 135.885C52.9925 136.931 55.3638 134.805 58.652 131.922C54.3927 134.369 50.7415 130.237 47.6489 127.854C47.4863 127.779 47.2671 127.618 47.4509 127.321C49.0114 127.632 50.1569 129.117 51.392 130.044C54.2725 132.637 58.2701 132.347 60.8864 130.044C60.943 129.572 61.4757 129.756 61.5724 129.457C61.6196 129.299 61.8812 128.971 61.5252 129.059C59.0078 129.351 57.4427 127.519 56.1935 125.221C56.1793 125.19 56.1759 125.154 56.1838 125.12C56.1918 125.087 56.2106 125.056 56.2374 125.034C56.2642 125.012 56.2975 125 56.3322 124.999C56.3668 124.998 56.401 125.008 56.4292 125.028C57.306 125.785 57.9306 126.756 58.8523 127.491C61.6666 129.756 64.038 126.395 65.0302 125.134C64.9171 125.299 65.735 125.407 65.735 125.407Z" fill="#2D3837"/>
<path d="M71.8659 68.3062H68.7922V92.556H71.8659V68.3062Z" fill="#A88771"/>
<path d="M84.0408 60.5752C82.7518 60.5805 81.5134 60.0735 80.5981 59.1658C79.6829 58.258 79.1658 57.0239 79.1604 55.7349C79.1551 54.4459 79.6621 53.2075 80.5698 52.2923C81.4776 51.377 82.7117 50.8598 84.0007 50.8545H84.0432C85.3249 50.8538 86.5549 51.36 87.4648 52.2625C88.3749 53.1651 88.8912 54.3907 88.9012 55.6724C88.91 56.9615 88.4072 58.2016 87.5032 59.1206C86.5992 60.0397 85.3676 60.5627 84.0786 60.5752H84.0408ZM84.0408 53.9281H84.0244C83.7896 53.9291 83.5576 53.9762 83.3411 54.0669C83.1247 54.1576 82.9282 54.29 82.763 54.4565C82.5978 54.623 82.4669 54.8205 82.378 55.0377C82.2891 55.2548 82.2438 55.4873 82.2446 55.7219C82.2456 55.9566 82.2928 56.1887 82.3834 56.4052C82.4741 56.6216 82.6065 56.818 82.773 56.9833C82.9395 57.1485 83.1371 57.2793 83.3542 57.3682C83.5713 57.4572 83.8039 57.5024 84.0385 57.5016H84.0549C84.4089 57.4988 84.754 57.3911 85.0466 57.1918C85.3391 56.9927 85.5659 56.7111 85.6983 56.3829C85.8305 56.0546 85.8624 55.6945 85.7897 55.3481C85.7171 55.0017 85.5432 54.6847 85.2901 54.4373C84.9576 54.1101 84.5096 53.9272 84.0432 53.9281H84.0408Z" fill="#A88771"/>
<path d="M71.8519 76.7586L68.7876 76.6006C68.8254 75.8935 69.7753 59.4622 79.7624 56.0938L80.7452 59.0048C76.6721 60.3837 74.48 65.0178 73.358 68.669C72.5643 71.303 72.0592 74.0154 71.8519 76.7586Z" fill="#A88771"/>
<path d="M57.4241 60.5752H57.3816C56.093 60.5621 54.862 60.0387 53.9586 59.1198C53.055 58.2008 52.5526 56.9612 52.5614 55.6724L54.1006 55.6866L52.5614 55.6724C52.5726 54.3912 53.0893 53.1661 53.999 52.2639C54.9088 51.3616 56.1381 50.8551 57.4194 50.8545H57.4618C58.7509 50.8595 59.9851 51.3764 60.8931 52.2914C61.8011 53.2065 62.3083 54.4447 62.3034 55.7337C62.2983 57.0227 61.7814 58.2571 60.8664 59.165C59.9514 60.0729 58.7131 60.5802 57.4241 60.5752ZM57.4241 53.9281C56.9503 53.9263 56.4951 54.1128 56.1586 54.4465C55.8223 54.7802 55.6322 55.2339 55.6304 55.7078C55.6285 56.1817 55.8149 56.6369 56.1486 56.9732C56.4824 57.3096 56.9361 57.4997 57.41 57.5016H57.4241C57.8979 57.504 58.3534 57.3182 58.6902 56.9849C59.027 56.6516 59.2177 56.1981 59.2203 55.7243C59.2228 55.2505 59.0369 54.795 58.7036 54.4582C58.3703 54.1214 57.9169 53.9307 57.4429 53.9281H57.4241Z" fill="#A88771"/>
<path d="M68.7921 77.4075C68.6469 74.611 68.1988 71.8385 67.4557 69.1387C66.3997 65.4263 64.3042 60.712 60.2476 59.3402L61.2329 56.4292C71.2411 59.814 71.8399 76.6037 71.8658 77.3179L68.8015 77.4075L70.3384 77.3627L68.7921 77.4075Z" fill="#A88771"/>
<path d="M71.5108 105.869L68.4373 105.883L68.5272 125.692L71.6007 125.678L71.5108 105.869Z" fill="#A88771"/>
<path d="M83.7953 147.765H83.7505C82.4618 147.753 81.2304 147.231 80.3269 146.312C79.4234 145.393 78.9219 144.153 78.9325 142.864C78.945 141.583 79.4623 140.358 80.3722 139.455C81.2821 138.553 82.5113 138.046 83.7928 138.044H83.8424C85.1315 138.049 86.3656 138.567 87.2734 139.482C88.181 140.397 88.688 141.635 88.6827 142.924C88.6774 144.213 88.1603 145.448 87.245 146.355C86.3297 147.263 85.0914 147.77 83.8024 147.765H83.7953ZM83.7953 141.118C83.443 141.117 83.0984 141.221 82.8049 141.415C82.5114 141.61 82.2822 141.888 82.1461 142.212C82.01 142.537 81.9731 142.895 82.04 143.241C82.107 143.587 82.2749 143.905 82.5224 144.156C82.6861 144.324 82.8814 144.457 83.0971 144.548C83.3128 144.64 83.5445 144.688 83.7787 144.689C84.0139 144.695 84.2478 144.653 84.466 144.565C84.6841 144.477 84.8819 144.345 85.0469 144.177C85.2146 144.013 85.348 143.817 85.4395 143.601C85.5309 143.385 85.5785 143.153 85.5796 142.918L87.1165 142.933L85.5796 142.918C85.5817 142.684 85.5377 142.451 85.4498 142.234C85.3621 142.016 85.2322 141.818 85.0679 141.651C84.9034 141.484 84.7076 141.351 84.4917 141.259C84.2758 141.168 84.044 141.119 83.8094 141.118H83.7953Z" fill="#A88771"/>
<path d="M79.628 142.966C69.6574 139.595 68.4859 123.52 68.4412 122.836L71.5054 122.633L69.9732 122.735L71.5054 122.633C71.5054 122.779 72.585 137.342 80.6109 140.055L79.628 142.966Z" fill="#A88771"/>
<path d="M71.4509 87.2435C71.5396 87.3282 71.6376 87.4026 71.7432 87.4651C73.1574 88.1227 73.742 89.5016 73.1574 90.9513C72.7025 92.0733 72.2547 93.2 71.8917 94.3525C71.6253 95.1988 71.0973 95.9577 71.0431 96.8747L70.9276 97.0255C71.0997 97.0774 71.0031 96.9219 71.0431 96.8723C71.1398 96.8582 71.26 96.8559 71.2977 96.7498C71.6253 95.8069 72.2735 95.0409 72.7638 94.1852C73.306 93.2423 73.9023 92.3278 74.4656 91.3967C74.647 91.0851 74.8915 90.8147 75.1833 90.6029C75.4751 90.3909 75.8079 90.2423 76.1604 90.1664C76.7685 90.0171 77.4096 90.0853 77.9727 90.3591C78.5358 90.6329 78.9853 91.095 79.2435 91.6655C79.7692 92.9359 79.3402 94.494 78.1734 95.0409C76.3231 95.9248 74.5151 96.9266 72.5517 97.5488C72.2806 97.6361 72.1768 97.8058 72.1251 98.1593C73.9636 97.6077 75.762 97.2848 77.5252 96.8205C78.4845 96.5683 79.4462 96.349 80.408 96.7921C81.6666 97.3839 82.2205 99.0338 81.6171 100.37C81.0797 101.549 79.3355 102.225 78.1121 101.69C76.4103 100.945 74.633 100.396 72.9006 99.7315C72.7638 99.6796 72.6318 99.5877 72.4951 99.7315C72.4716 99.9319 72.6554 99.9672 72.7686 100.033C74.3219 101 75.8681 101.978 77.4379 102.921C79.1705 103.96 79.3567 106.251 77.7208 107.418C76.4032 108.361 74.5717 108.007 73.8505 106.529C73.3389 105.483 72.8487 104.427 72.3655 103.369C72.0002 102.562 71.729 101.683 71.1515 100.962C70.9465 101.167 71.0407 101.356 71.0855 101.544C71.5027 103.328 71.9317 105.11 72.323 106.899C72.5846 108.095 72.2712 109.094 71.2341 109.832C70.3878 110.433 69.1951 110.43 68.1698 109.777C67.4296 109.306 67.0148 108.243 67.1491 107.319C67.3189 106.14 67.887 105.115 68.2476 104.019C68.5634 103.048 68.9076 102.089 69.2541 101.089C69.1736 101.081 69.0925 101.096 69.0206 101.133C68.9485 101.17 68.8888 101.226 68.8486 101.297C68.0473 102.635 67.2741 103.991 66.4444 105.304C65.8834 106.197 65.353 107.135 64.1226 107.307C63.545 107.41 62.9497 107.32 62.4279 107.052C61.906 106.784 61.4864 106.352 61.2333 105.823C60.9804 105.294 60.9079 104.696 61.027 104.122C61.1461 103.547 61.4502 103.028 61.8929 102.643C62.3855 102.216 63.0078 102.023 63.5852 101.761C65.1927 101.033 66.8027 100.314 68.3631 99.4605C68.2004 99.2483 68.0614 99.3331 67.92 99.3685C65.9047 99.88 63.8894 100.387 61.8598 100.839C61.4267 100.947 60.9734 100.943 60.5418 100.829C60.1103 100.715 59.7144 100.495 59.3905 100.188C59.0667 99.8806 58.8255 99.4968 58.689 99.0719C58.5525 98.6469 58.5251 98.1945 58.6094 97.7563C58.9016 96.1887 60.5752 95.1799 61.9588 95.7032C63.7337 96.3749 65.5322 96.9925 67.3284 97.6054C67.6088 97.6997 67.7998 98.0768 68.2711 97.8411C66.7084 96.7662 65.122 95.8163 63.5145 94.9112C62.2441 94.2041 61.4403 93.0774 61.5581 91.847C61.6476 90.9041 62.6754 89.7256 63.5546 89.5605C64.8109 89.3248 66.1238 89.8694 66.6189 90.8877C67.4721 92.6767 68.2877 94.4845 69.1244 96.2831C69.2163 96.481 69.2399 96.7545 69.5959 96.8747C69.1386 94.897 68.6861 93.0019 68.2664 91.0997C67.7125 88.5753 68.3089 88.1958 69.8009 87.2459C70.3265 87.1799 70.8782 87.0927 71.4509 87.2435ZM68.554 98.5059C68.5295 98.7218 68.5499 98.9404 68.6142 99.148C68.6785 99.3556 68.785 99.5477 68.9272 99.7121C69.0695 99.8763 69.2441 100.009 69.4403 100.103C69.6366 100.196 69.8501 100.248 70.0673 100.255C70.8592 100.278 71.6418 99.5288 71.6842 98.7109C71.6841 98.2991 71.5253 97.9034 71.2408 97.6058C70.9564 97.3081 70.5681 97.1315 70.1568 97.1128C69.9594 97.0951 69.7603 97.1174 69.5716 97.1785C69.383 97.2395 69.2086 97.338 69.059 97.4681C68.9093 97.5982 68.7874 97.7571 68.7007 97.9355C68.6139 98.1138 68.564 98.3078 68.554 98.5059Z" fill="#F74700"/>
<path d="M70.2632 96.7736C69.9902 96.7502 69.7151 96.7819 69.4546 96.8671C69.194 96.9522 68.9534 97.0889 68.7468 97.269C68.5403 97.4492 68.372 97.6692 68.2523 97.9156C68.1326 98.1622 68.0637 98.4303 68.0499 98.704C67.9627 100.036 68.8796 101.092 70.1477 101.127C71.2437 101.158 72.3281 100.123 72.387 98.9893C72.4458 97.8555 71.4489 96.8302 70.2632 96.7736Z" fill="#2D3837"/>
</svg>
