<svg xmlns="http://www.w3.org/2000/svg" width="1000" height="1000" fill="none" viewBox="0 0 90 125"><path fill="#C75305" d="M55.6137 2.66797C57.4819 3.35827 59.2276 4.35058 60.7833 5.60643C62.0582 6.60724 63.163 7.81288 64.0541 9.17558C64.45 8.89276 64.3329 8.44591 64.4779 8.08956C64.5225 7.96795 64.4305 7.78412 64.6201 7.72473C64.8097 7.66534 64.8822 7.86331 64.9603 7.98775C65.9805 9.62807 66.6791 11.4526 67.0181 13.3613C67.2962 14.6953 67.3901 16.0622 67.2969 17.4225C67.269 17.7986 67.3834 17.8467 67.7068 17.6799C68.065 17.4563 68.3697 17.155 68.5991 16.7975C68.8138 18.0645 68.6577 19.2891 68.574 20.4939C68.4181 22.8952 67.979 25.2689 67.2663 27.5643C66.2043 31.0551 64.5014 34.3109 62.2472 37.1603C60.6291 39.2307 58.719 41.048 56.5785 42.5536C54.6405 43.8941 52.4517 44.5842 50.1931 45.0678C48.4074 45.4451 46.5849 45.6131 44.7614 45.5684C41.3121 45.4699 37.9121 44.7119 34.74 43.3341C32.7976 42.5573 30.9764 41.4989 29.3334 40.1921C26.9217 38.1754 25.0666 35.5591 23.949 32.5984C22.9604 29.9976 22.378 27.2561 22.223 24.4731C22.0881 22.5216 22.1348 20.5615 22.3625 18.6188C22.3722 18.4568 22.3722 18.2944 22.3625 18.1324C22.3151 18.1324 22.2621 18.1041 22.2537 18.1154C22.039 18.3982 21.7156 18.681 21.4172 18.5227C21.1188 18.3643 21.2583 17.9146 21.3112 17.6261C21.6821 15.5983 22.4601 13.8053 24.292 12.6797C24.6127 12.4817 24.5179 12.2102 24.4956 11.9274C24.2907 10.0661 24.4354 8.1823 24.9222 6.37569C25.1815 5.49613 25.5607 4.67879 26.4028 4.17821C26.7736 3.96044 26.9605 3.96044 27.0023 4.47799C27.072 5.41977 27.178 6.35872 27.8053 7.13364C28.0842 8.16592 28.7116 8.54772 29.6624 8.22249C29.7587 8.19606 29.8565 8.17529 29.9552 8.16027C31.359 7.90656 32.7849 7.80041 34.2102 7.84351C34.3673 7.85151 34.5242 7.82336 34.6691 7.76116C34.8139 7.69896 34.943 7.60432 35.0467 7.48433C35.7073 6.81071 36.5034 6.28946 37.3806 5.95612C38.2578 5.62277 39.1955 5.48517 40.1299 5.5527C39.7714 5.80509 39.4355 6.089 39.1261 6.40115C38.4589 7.26172 37.9644 8.24657 37.6706 9.30002C37.3415 10.403 37.5033 11.0365 38.3872 11.7492C39.6827 12.7392 41.215 13.361 42.8263 13.5507C43.5261 13.6554 43.6209 13.7572 43.4118 14.4331C43.3261 14.6819 43.1837 14.9067 42.9963 15.0893C42.1792 15.979 41.1746 16.6702 40.0574 17.1114C39.879 17.1821 39.6782 17.2613 39.8817 17.5498C40.5788 18.5311 40.6932 19.6341 40.5286 20.8022C40.4617 21.2829 40.3279 21.4526 39.8343 21.2575C38.9223 20.8774 37.9387 20.7065 36.954 20.7569C36.0951 20.8106 35.6574 21.2038 35.8135 21.8514C36.3517 24.0659 37.5423 25.7119 39.8065 26.3397C40.8354 26.6225 41.8475 26.7781 42.8541 26.0908C43.7144 25.4964 44.7054 25.1254 45.7401 25.0105C47.3713 24.8266 48.8073 25.7656 49.5267 27.3352C47.7115 27.7425 46.0998 28.5089 44.8646 29.9711C44.0615 30.9242 42.9517 31.2353 41.7834 31.4219C40.9719 31.5286 40.1529 31.5655 39.3352 31.5322C40.0948 32.2085 40.9175 32.8081 41.7918 33.3224C43.5178 34.3689 45.3358 35.141 47.3685 35.271C49.2841 35.4194 51.1822 34.8114 52.6664 33.5742C53.809 32.6421 54.7449 31.476 55.4129 30.1521C55.7196 29.544 56.0319 28.9388 56.3805 28.2572C56.7569 29.165 56.7095 30.0135 56.7011 30.9524C57.2049 30.4784 57.5877 29.8873 57.8165 29.2301C58.798 26.7441 58.7841 24.1394 58.5777 21.5431C58.5582 21.2603 58.3937 20.8813 58.6502 20.7541C58.9067 20.6268 59.1688 20.9549 59.3752 21.167C59.456 21.2518 59.5062 21.3678 59.5899 21.4498C59.9022 21.7722 59.9217 22.2587 60.234 22.6546C60.9144 21.0652 60.9785 19.4616 60.7694 17.8467C60.615 16.761 60.3687 15.6909 60.0332 14.6481C59.9803 14.4812 59.8882 14.2606 60.0137 14.1362C60.1392 14.0117 60.3874 14.1107 60.5714 14.1729C60.906 14.2832 61.1737 14.5576 61.6031 14.5915C61.262 12.3732 60.0867 10.3752 58.324 9.0172C57.0525 7.94815 55.53 7.32878 53.9853 6.76315C53.6284 6.63588 52.9675 6.68962 53.0456 6.13247C53.1237 5.57532 53.7455 5.63471 54.186 5.56684C54.8106 5.48765 54.8971 5.34058 54.5346 4.82303C54.4098 4.66457 54.2611 4.52712 54.094 4.41577C53.3458 3.92011 52.5155 3.56561 51.6431 3.36935C51.5009 3.32976 51.2583 3.40612 51.2499 3.18835C51.2499 2.92533 51.5287 2.9819 51.6654 2.94796C52.1748 2.82816 52.6956 2.76463 53.2185 2.75847C54.0187 2.74999 54.8246 2.84049 55.6137 2.66797Z"/><path fill="#4D6247" d="M55.6138 2.6679C54.8191 2.84042 54.0133 2.74992 53.213 2.75558C52.6901 2.76174 52.1694 2.82527 51.6599 2.94506C51.5177 2.979 51.2333 2.92244 51.2444 3.18546C51.2444 3.40322 51.4954 3.32686 51.6376 3.36646C52.5114 3.5688 53.3418 3.93004 54.0886 4.43268C54.2557 4.54402 54.4044 4.68147 54.5291 4.83993C54.8916 5.35748 54.808 5.50455 54.1806 5.58374C53.74 5.6403 53.1154 5.6205 53.0401 6.14937C52.9649 6.67824 53.6229 6.65278 53.9798 6.78005C55.5246 7.34568 57.047 7.95939 58.3352 8.99167C60.0979 10.3497 61.2733 12.3477 61.6144 14.566C61.1849 14.532 60.9173 14.2577 60.5827 14.1474C60.3903 14.0852 60.1756 13.9523 60.025 14.1107C59.8744 14.269 59.9915 14.4557 60.0445 14.6226C60.38 15.6653 60.6263 16.7355 60.7806 17.8212C60.9898 19.4474 60.9256 21.051 60.2453 22.6291C59.933 22.2331 59.9135 21.7467 59.6012 21.4243C59.5175 21.3394 59.4673 21.2235 59.3865 21.1415C59.1801 20.9294 58.9403 20.5758 58.6615 20.7286C58.3826 20.8813 58.5695 21.2461 58.589 21.5176C58.7953 24.128 58.8093 26.7186 57.8278 29.2046C57.5989 29.8618 57.2162 30.4529 56.7124 30.9269C56.7124 29.988 56.7682 29.1395 56.3918 28.2317C56.0432 28.9133 55.7309 29.5185 55.4242 30.1265C54.7562 31.4505 53.8203 32.6166 52.6777 33.5486C51.1934 34.7859 49.2954 35.3938 47.3798 35.2455C45.3359 35.1154 43.5179 34.3433 41.803 33.2969C40.9288 32.7826 40.106 32.183 39.3465 31.5067C40.1642 31.54 40.9831 31.5031 41.7947 31.3964C42.963 31.2097 44.0728 30.8986 44.8758 29.9455C46.1111 28.4834 47.7227 27.7169 49.538 27.3097C48.8297 25.7401 47.3826 24.8011 45.7514 24.9849C44.7167 25.0999 43.7256 25.4709 42.8654 26.0653C41.8588 26.7525 40.8466 26.597 39.8177 26.3142C37.5536 25.6863 36.3629 24.0516 35.8248 21.8259C35.6686 21.1782 36.1036 20.7851 36.9652 20.7314C37.95 20.681 38.9336 20.8519 39.8456 21.232C40.3392 21.4271 40.473 21.2574 40.5399 20.7766C40.7044 19.6086 40.5901 18.5141 39.893 17.5242C39.6895 17.2414 39.893 17.1566 40.0687 17.0859C41.1859 16.6447 42.1905 15.9535 43.0076 15.0637C43.195 14.8812 43.3373 14.6564 43.4231 14.4076C43.6322 13.7317 43.5374 13.6299 42.8375 13.5252C41.2263 13.3355 39.694 12.7136 38.3984 11.7237C37.5145 11.011 37.3528 10.3775 37.6818 9.27449C37.9757 8.22104 38.4701 7.2362 39.1374 6.37562C39.4468 6.06348 39.7827 5.77957 40.1412 5.52717C39.2068 5.45965 38.269 5.59725 37.3918 5.93059C36.5146 6.26393 35.7186 6.78518 35.058 7.45881C34.9543 7.57879 34.8252 7.67343 34.6803 7.73563C34.5355 7.79783 34.3786 7.82599 34.2215 7.81799C32.7939 7.77823 31.3661 7.88817 29.9609 8.14605C29.8622 8.16107 29.7644 8.18185 29.6681 8.20827C28.7173 8.5222 28.0815 8.15171 27.811 7.11943C29.7512 5.19996 31.9835 3.60997 34.4222 2.41054C36.9194 1.16915 39.6155 0.391381 42.383 0.114069C47.0452 -0.344093 51.4313 0.592029 55.6138 2.6679Z"/><path fill="#4D6247" d="M13.989 88.1152H28.3463L28.377 88.2142L25.3544 89.2861C24.239 89.6735 23.1488 90.0695 22.039 90.4343C21.618 90.5729 21.5957 90.686 21.816 91.0961C23.9429 95.0267 26.466 98.7231 29.3445 102.126C32.6536 106.071 36.5036 109.514 40.7768 112.35C42.016 113.152 43.2998 113.881 44.622 114.533C44.754 114.6 44.8996 114.635 45.0472 114.635C45.1948 114.635 45.3404 114.6 45.4724 114.533C47.7422 113.605 49.7554 112.242 51.6682 110.715C53.4078 109.308 55.0563 107.789 56.6036 106.167C59.6583 102.981 62.5224 99.6124 65.1806 96.0793C66.5971 94.1986 67.9689 92.2868 69.3269 90.3664C69.5109 90.1062 69.5472 89.9875 69.1651 89.8715C67.4921 89.3681 65.8442 88.8223 64.1823 88.2906C64.0875 88.2594 63.9927 88.2397 63.9565 88.1011H76.0162C75.208 90.2352 74.2297 92.2991 73.0912 94.2721C71.7482 96.7005 70.2426 99.0326 68.5852 101.252C67.2668 103.073 65.8451 104.814 64.3273 106.467C62.5679 108.334 60.7945 110.195 58.8677 111.889C58.0312 112.63 57.1947 113.405 56.3275 114.098C54.9891 115.15 53.6089 116.148 52.2398 117.158C50.1263 118.697 47.9171 120.096 45.6258 121.346C45.4258 121.475 45.1927 121.542 44.9556 121.537C44.7185 121.533 44.488 121.458 44.2929 121.321C43.6488 120.925 42.9601 120.591 42.3411 120.189C40.7935 119.166 39.2376 118.159 37.7291 117.078C32.4331 113.247 27.6639 108.717 23.5475 103.608C22.0864 101.77 20.6839 99.8889 19.3845 97.9318C17.7608 95.5177 16.3135 92.9863 15.0542 90.3579C14.6889 89.6113 14.2483 88.9071 13.989 88.1152Z"/><path fill="#4D6247" d="M85.4492 61.5503C83.0791 61.16 80.709 60.7754 78.3333 60.371C75.5449 59.8987 72.7789 59.3952 69.9961 58.9258C67.2133 58.4563 64.4194 58.049 61.631 57.5428C59.3445 57.1271 57.033 56.8499 54.7633 56.3295C54.4235 56.3031 54.0887 56.2308 53.7678 56.1146H55.4408C61.8987 56.1146 68.3575 56.1193 74.8172 56.1287C75.3749 56.1287 75.5143 55.9986 75.5087 55.433C75.4511 49.211 75.4102 42.9891 75.386 36.7671C75.386 36.3655 75.28 36.2467 74.8813 36.2496C73.1525 36.2722 71.421 36.2496 69.6922 36.2694C69.2739 36.2694 69.1568 36.1789 69.1624 35.7405C69.2042 33.2715 69.207 30.8025 69.2237 28.3335C70.7141 28.3533 72.2042 28.2778 73.6851 28.1073C76.3536 27.8245 79.0109 27.454 81.6598 27.0297C83.4751 26.7469 85.2847 26.4443 87.0944 26.1191C87.5795 26.0314 87.6716 26.1813 87.652 26.6366C87.6102 29.247 87.6688 31.8574 87.5851 34.465C87.5015 37.214 87.4541 39.9658 87.337 42.7119C87.178 46.496 86.9466 50.2688 86.5702 54.0246C86.3381 56.5527 85.9638 59.0654 85.4492 61.5503Z"/><path fill="#4D6247" d="M20.7591 28.3307C20.7758 30.7997 20.7786 33.2687 20.8176 35.7405C20.8176 36.1845 20.6977 36.2722 20.2879 36.2665C18.5758 36.2439 16.8665 36.2665 15.1545 36.2496C14.7641 36.2496 14.5968 36.3061 14.5968 36.7699C14.5708 43.0145 14.5299 49.2601 14.4741 55.5065C14.4741 56.0439 14.6414 56.1259 15.1182 56.1259C22.1644 56.1089 29.2078 56.1259 36.2652 56.1796C35.5374 56.3126 34.8097 56.4624 34.0791 56.5756C31.9804 56.9376 29.8798 57.2958 27.7774 57.6503C25.7168 57.9925 23.6534 58.3177 21.5928 58.6656C19.3008 59.053 17.0115 59.4631 14.7195 59.8534C12.8959 60.1617 11.0723 60.4417 9.24873 60.7471C7.67888 61.0073 6.11182 61.2816 4.54476 61.5503C4.21294 60.0259 3.96199 58.4846 3.75007 56.9376C3.37365 54.2169 3.14779 51.4849 2.96097 48.7359C2.77415 45.9869 2.68213 43.2493 2.57059 40.5031C2.3847 35.8366 2.30756 31.1692 2.33916 26.5009C2.33916 26.1587 2.41166 26.0201 2.7853 26.0936C3.76402 26.2803 4.7511 26.45 5.73539 26.6027C8.28674 26.9986 10.8269 27.437 13.3894 27.7509C15.8432 28.062 18.2858 28.4071 20.7591 28.3307Z"/><path fill="#C75305" d="M13.989 88.1153C14.2483 88.9072 14.6889 89.6114 15.0402 90.358C16.2977 92.9863 17.7431 95.5176 19.3649 97.9318C20.6643 99.8889 22.0669 101.77 23.528 103.608C27.6471 108.717 32.4191 113.246 37.7179 117.076C39.2265 118.162 40.7851 119.169 42.3299 120.187C42.9545 120.6 43.6432 120.933 44.2817 121.318C44.4768 121.455 44.7073 121.53 44.9444 121.535C45.1815 121.539 45.4146 121.473 45.6146 121.343C47.9059 120.093 50.1151 118.694 52.2286 117.155C53.5977 116.145 54.9779 115.147 56.3163 114.095C57.1947 113.402 58.0144 112.627 58.8565 111.886C60.7833 110.189 62.5567 108.331 64.3161 106.464C65.8339 104.811 67.2556 103.07 68.574 101.249C70.2315 99.0298 71.737 96.6977 73.08 94.2694C74.2186 92.2963 75.1968 90.2325 76.005 88.0983C76.0171 88.0921 76.0304 88.0889 76.044 88.0889C76.0576 88.0889 76.0709 88.0921 76.083 88.0983C76.847 88.1125 77.6111 88.1238 78.3723 88.1436C78.5814 88.1436 78.8296 88.0616 78.9634 88.3274C75.5953 95.6173 71.2056 102.375 65.9306 108.39C64.5364 109.985 63.0948 111.555 61.564 113.023C58.6653 115.833 55.5573 118.413 52.2676 120.738C50.1027 122.274 47.8339 123.652 45.478 124.864C45.3389 124.953 45.178 125 45.0137 125C44.8494 125 44.6885 124.953 44.5494 124.864C41.2136 122.988 38.0104 120.879 34.963 118.552C31.3115 115.731 27.9064 112.596 24.7855 109.182C22.3747 106.562 20.1434 103.777 18.1074 100.848C15.7727 97.5334 13.7045 94.034 11.9228 90.3835C11.5854 89.6849 11.1811 89.0062 11.0305 88.2256C11.9841 88.0474 12.9545 88.251 13.9109 88.1125C13.9232 88.1067 13.9367 88.1039 13.9503 88.1044C13.9638 88.1049 13.9771 88.1086 13.989 88.1153Z"/><path fill="#C75305" d="M20.7591 28.3306C18.2802 28.407 15.8376 28.0619 13.3867 27.765C10.8242 27.4511 8.28395 27.0127 5.7326 26.6168C4.74831 26.464 3.76123 26.2943 2.78251 26.1077C2.40887 26.0342 2.33916 26.1727 2.33637 26.5149C2.31221 31.1833 2.38936 35.8507 2.56781 40.5172C2.67377 43.2633 2.77136 46.0095 2.95818 48.75C3.145 51.4905 3.37086 54.2196 3.74729 56.9516C3.9592 58.4986 4.21016 60.04 4.54197 61.5644C4.01218 61.6634 3.4824 61.7652 2.95261 61.8472C2.58176 61.9094 2.36426 61.8472 2.25273 61.3721C1.84284 59.5988 1.57794 57.8086 1.32978 55.9986C1.00354 53.6427 0.847392 51.2727 0.641053 48.9055C0.515577 47.4688 0.448655 46.0208 0.387311 44.5756C0.0805913 37.4788 -0.0439546 30.3801 0.0136716 23.2795C0.0136716 23.1777 0.0136716 23.0759 0.0136716 22.9119C0.822297 23.1805 1.58351 23.4775 2.3782 23.6953C4.23176 24.1574 6.1107 24.5078 8.00512 24.7445C9.82871 24.9906 11.6495 25.2508 13.4759 25.4544C14.99 25.6212 16.5096 25.7174 18.0293 25.8503C18.8268 25.921 19.6242 26.0172 20.4245 26.0681C20.734 26.0879 20.7786 26.2265 20.7702 26.4895C20.7591 27.1032 20.7591 27.7169 20.7591 28.3306Z"/><path fill="#C75305" d="M85.4491 61.5502C85.9615 59.068 86.3339 56.5582 86.5644 54.0329C86.9409 50.2658 87.1723 46.4931 87.3312 42.7203C87.4483 39.9741 87.4957 37.2223 87.5794 34.4734C87.6631 31.8658 87.6045 29.2554 87.6463 26.645C87.6463 26.1897 87.5627 26.0398 87.0886 26.1274C85.2818 26.4527 83.4638 26.7468 81.6541 27.0381C79.0052 27.4623 76.3562 27.8413 73.6794 28.1156C72.1984 28.2862 70.7084 28.3617 69.218 28.3419C69.218 27.8922 69.218 27.4425 69.218 26.9957C69.218 26.102 69.218 26.0794 70.0908 26.003C71.7471 25.8588 73.4089 25.7711 75.0652 25.6099C76.7215 25.4487 78.3583 25.2026 80.0062 25.0245C81.9106 24.8208 83.7956 24.5126 85.6749 24.1477C87.1565 23.9067 88.6034 23.4821 89.983 22.8835C89.983 23.0843 89.983 23.2342 89.983 23.3841C90.0192 28.4211 90.0081 33.4609 89.8436 38.495C89.7432 41.5268 89.6288 44.5614 89.4141 47.5904C89.2859 49.4117 89.1827 51.2415 89.0015 53.06C88.7226 55.8514 88.4159 58.64 87.7411 61.3777C87.624 61.8613 87.4093 61.9094 87.044 61.85C86.5142 61.751 85.9872 61.6492 85.4491 61.5502Z"/><path fill="#C75305" d="M78.9746 88.3415C78.8408 88.0756 78.5926 88.1633 78.3835 88.1576C77.6222 88.1378 76.8582 88.1265 76.0942 88.1124C76.9168 88.1124 77.7366 88.1124 78.5591 88.1124C78.7097 88.1209 78.9997 87.9597 78.9746 88.3415Z"/><path fill="#C75305" d="M13.9053 88.1156C12.9489 88.2542 11.9785 88.0505 11.0249 88.2287C11.4683 87.977 11.9451 88.1495 12.4051 88.1212C12.8652 88.093 13.4062 88.1156 13.9053 88.1156Z"/><path fill="#C75305" d="M26.6454 72.9195C26.6454 74.5712 26.6092 76.2228 26.6622 77.8717C26.6845 78.5815 26.3443 78.5872 25.8257 78.6013C25.307 78.6155 25.0505 78.4797 25.0589 77.8604C25.0895 75.2895 25.0589 72.7159 25.0812 70.1451C25.0812 69.8453 24.8609 69.3589 25.3767 69.2966C25.8926 69.2344 26.3554 69.127 26.7096 69.7746C27.7217 71.6271 28.8204 73.4286 29.8799 75.2443C30.1114 75.2443 30.1365 75.0407 30.209 74.9134C31.1998 73.2165 32.185 71.5111 33.1646 69.7972C33.3294 69.5651 33.5611 69.3906 33.8279 69.2979C34.0946 69.2052 34.3831 69.1988 34.6536 69.2797C34.8404 69.356 34.7958 69.5003 34.7958 69.6332C34.7958 72.4614 34.7958 75.299 34.7958 78.146C34.7958 78.4571 34.6787 78.5702 34.3748 78.5957C33.2204 78.6918 33.2232 78.7003 33.2232 77.5323V72.5773L31.3912 75.6883C31.1124 76.1606 30.8336 76.6357 30.5547 77.1024C30.195 77.7133 29.6485 77.7161 29.2832 77.1024C28.4467 75.6977 27.6102 74.2912 26.7737 72.8828L26.6454 72.9195Z"/><path fill="#C75305" d="M17.8509 69.2655C18.6874 69.2853 19.627 69.1948 20.5556 69.4465C21.8271 69.7887 22.7277 70.5495 22.9368 71.9098C23.1515 73.3239 22.8225 74.5598 21.4925 75.3036C21.2136 75.462 21.2276 75.5864 21.3949 75.8013C21.9023 76.5112 22.3959 77.2324 22.8894 77.9507C22.9898 78.095 23.1683 78.2336 23.0484 78.4372C22.9285 78.6408 22.7249 78.5475 22.5548 78.5758C21.8047 78.6917 21.2276 78.4938 20.8985 77.7273C20.7954 77.4898 20.5667 77.3088 20.458 77.074C19.9867 76.0389 19.2311 75.6741 18.1074 75.8042C17.1705 75.9116 17.1593 75.824 17.1593 76.7799C17.1593 77.2296 17.1593 77.6792 17.1593 78.1289C17.1593 78.4485 17.0255 78.5447 16.7271 78.5701C15.5309 78.6634 15.5198 78.6606 15.5198 77.4389C15.5198 74.9274 15.5198 72.416 15.5198 69.9046C15.5198 69.4041 15.6536 69.1976 16.1667 69.2344C16.6797 69.2711 17.2095 69.2655 17.8509 69.2655ZM17.1593 72.5886C17.1593 73.058 17.1733 73.5275 17.1593 74.0026C17.1454 74.3024 17.2067 74.4523 17.5497 74.4325C18.2496 74.3958 18.9439 74.4325 19.6521 74.3675C20.7675 74.2741 21.3809 73.5954 21.3726 72.5659C21.3642 71.5365 20.7201 70.8832 19.6047 70.8096C18.9048 70.7672 18.2105 70.8096 17.4995 70.7842C17.2207 70.7842 17.151 70.869 17.1593 71.1321C17.1705 71.6157 17.1593 72.0936 17.1593 72.5914V72.5886Z"/><path fill="#C75305" d="M39.0229 73.5219C40.3111 72.3171 41.7164 71.0077 43.1162 69.6898C43.4759 69.3532 44.5355 69.0846 44.9509 69.2825C45.3023 69.4522 45.1266 69.6587 44.9509 69.8482C43.9248 70.9398 42.9182 72.0513 41.867 73.1203C41.5631 73.4286 41.5882 73.5898 41.867 73.8981C42.9824 75.233 44.0782 76.5933 45.174 77.948C45.2772 78.0781 45.4835 78.1799 45.3859 78.409C45.2883 78.6381 45.0904 78.5589 44.9175 78.5872C44.081 78.7201 43.4954 78.4486 42.9796 77.7387C42.3187 76.8167 41.5129 76.0079 40.7963 75.1283C40.5453 74.8201 40.4394 74.7918 40.0797 75.0576C39.0786 75.7901 38.9113 76.7545 39.0285 77.8858C39.0508 78.1177 39.179 78.4967 38.8082 78.5504C38.379 78.6639 37.9261 78.6432 37.5088 78.491C37.3527 78.4147 37.4056 78.2082 37.4056 78.0357C37.4056 75.3037 37.4056 72.5689 37.4056 69.834C37.4056 69.4154 37.5339 69.2231 37.9633 69.2684C38.1433 69.2839 38.3243 69.2839 38.5042 69.2684C38.9281 69.2373 39.0619 69.4352 39.0619 69.8538C39.0117 71.1717 39.0229 72.4925 39.0229 73.5219Z"/><path fill="#C75305" d="M48.2886 77.1108C50.0062 77.1108 51.5538 77.1391 53.0985 77.0967C53.7175 77.0769 53.7649 77.3512 53.7761 77.8603C53.7872 78.3693 53.6617 78.5984 53.0762 78.5984C51.0072 78.5616 48.9355 78.5984 46.8637 78.5758C46.5849 78.5758 46.1638 78.7483 46.069 78.3722C45.9958 78.1713 45.9733 77.9551 46.0035 77.7432C46.0337 77.5313 46.1157 77.3305 46.2419 77.1589C47.3071 75.8551 48.3471 74.5315 49.3928 73.2164C50.009 72.4443 50.6224 71.6694 51.3279 70.7813H48.8351C48.1101 70.7813 47.3879 70.7813 46.663 70.7813C46.2865 70.7813 46.0858 70.6795 46.1248 70.2638C46.1401 70.0812 46.1401 69.8977 46.1248 69.7151C46.1053 69.4125 46.2112 69.257 46.5319 69.2598C48.7431 69.2598 50.9543 69.2598 53.1682 69.2598C53.6422 69.2598 53.7872 70.1082 53.3857 70.6315C52.6078 71.6411 51.8075 72.6366 51.0156 73.6378C50.1456 74.7634 49.2701 75.8692 48.2886 77.1108Z"/><path fill="#C75305" d="M82.5465 78.5985C82.0865 78.7512 81.7853 78.4741 81.6766 77.9707C81.381 76.6245 80.6058 76.0984 79.2423 76.3303C78.5622 76.4067 77.8758 76.4067 77.1957 76.3303C76.7328 76.3049 76.4512 76.4095 76.3062 76.896C76.1584 77.3168 75.9823 77.7269 75.7792 78.1234C75.6007 78.5165 74.4352 78.7965 74.1229 78.5108C73.8915 78.2987 74.0922 78.0951 74.1759 77.9056C75.2764 75.4225 76.3833 72.9412 77.4968 70.4619C77.5386 70.3686 77.5749 70.2752 77.6167 70.1791C78.0378 69.2316 78.3082 69.0931 79.3065 69.2543C79.5379 69.291 79.5853 69.4381 79.669 69.6021C80.92 72.3945 82.1738 75.1915 83.4304 77.9933C83.6228 78.4203 83.5197 78.6042 83.0568 78.5872C82.9174 78.5815 82.7752 78.5985 82.5465 78.5985ZM80.3716 74.9643L78.7572 71.2453C78.1995 72.5576 77.6781 73.7341 77.1538 74.9474L80.3716 74.9643Z"/><path fill="#C75305" d="M10.2414 78.6662C9.12235 78.7171 8.01458 78.4212 7.06544 77.8178C6.87583 77.699 6.55796 77.5915 6.65276 77.2946C6.72691 76.9157 6.91261 76.5686 7.18534 76.2991C7.3638 76.1577 7.51716 76.3358 7.66494 76.4376C8.62332 77.0978 9.79676 77.3553 10.9385 77.156C11.2815 77.1231 11.6041 76.976 11.8558 76.7374C11.9578 76.6481 12.0382 76.5364 12.0911 76.4107C12.1439 76.2851 12.1678 76.1488 12.1608 76.0124C12.1538 75.876 12.1161 75.743 12.0507 75.6235C11.9853 75.5041 11.8939 75.4014 11.7833 75.3233C11.34 74.9698 10.7879 74.902 10.2721 74.7577C9.67535 74.5767 9.06191 74.4494 8.48193 74.2288C7.52273 73.8697 6.8842 73.2079 6.83679 72.1134C6.78939 71.0189 7.19092 70.1761 8.16127 69.7009C9.83429 68.8836 11.5073 69.0533 13.1413 69.8791C13.5289 70.0743 13.3727 70.3175 13.2668 70.5805C12.9238 71.412 12.9238 71.429 12.1514 71.05C11.3945 70.7071 10.5576 70.5875 9.73669 70.7049C9.53508 70.7193 9.33829 70.7741 9.1578 70.8664C8.97732 70.9587 8.81676 71.0864 8.68548 71.2423C8.5995 71.3359 8.53426 71.4471 8.49415 71.5683C8.45404 71.6896 8.43998 71.8182 8.45292 71.9455C8.46586 72.0727 8.5055 72.1957 8.56918 72.3061C8.63286 72.4165 8.7191 72.5119 8.82211 72.5857C9.24272 72.8683 9.71809 73.0563 10.2163 73.1372C10.9033 73.2844 11.5783 73.4848 12.2351 73.7367C13.1301 74.127 13.738 74.7577 13.7854 75.7956C13.828 76.2771 13.7286 76.7606 13.4997 77.1846C13.2708 77.6086 12.9229 77.954 12.5 78.177C11.81 78.5592 11.0251 78.7292 10.2414 78.6662Z"/><path fill="#C75305" d="M59.6204 73.9291C59.6204 72.5631 59.6204 71.1971 59.6204 69.8311C59.6204 69.4041 59.7598 69.2259 60.178 69.2655C60.3179 69.2825 60.4592 69.2825 60.5991 69.2655C61.0815 69.2174 61.2711 69.3899 61.2655 69.9216C61.2376 72.1219 61.2655 74.3223 61.2404 76.5254C61.2404 77.0175 61.3798 77.1334 61.8427 77.1221C63.0277 77.0882 64.2128 77.1419 65.3979 77.0967C65.9695 77.074 66.0224 77.3427 65.989 77.7924C65.9611 78.1855 66.1005 78.6041 65.4313 78.5899C63.6858 78.5475 61.9347 78.5645 60.1892 78.5899C59.7709 78.5899 59.6315 78.457 59.6315 78.0243C59.6315 76.6611 59.6204 75.2951 59.6204 73.9291Z"/><path fill="#C75305" d="M67.4726 73.9206C67.4726 72.5942 67.4977 71.2678 67.4726 69.9442C67.4587 69.3927 67.6511 69.2004 68.1669 69.2711C68.2874 69.2853 68.409 69.2853 68.5294 69.2711C68.97 69.2287 69.1261 69.4154 69.1233 69.8707C69.1038 72.054 69.1401 74.2345 69.0982 76.4151C69.0843 77.0316 69.2739 77.1476 69.8316 77.1278C70.9943 77.0825 72.1626 77.1278 73.3282 77.1023C73.8468 77.0853 73.8858 77.354 73.844 77.7443C73.8022 78.1346 74.0476 78.5928 73.3337 78.5928C71.5659 78.5673 69.7981 78.573 68.0359 78.5928C67.6093 78.5928 67.4782 78.4372 67.4782 78.0271C67.4838 76.6498 67.4726 75.2838 67.4726 73.9206Z"/><path fill="#C75305" d="M29.8631 96.7553C29.8631 96.1897 29.8631 95.624 29.8631 95.0414C29.8631 94.8548 29.7432 94.5691 29.9913 94.5069C30.2395 94.4447 30.6745 94.3287 30.8418 94.5635C31.0091 94.7982 31.076 94.7077 31.235 94.6455C32.0882 94.3231 32.9247 94.2609 33.6803 94.8887C33.7041 94.9188 33.7343 94.9431 33.7685 94.9597C33.8028 94.9764 33.8403 94.9851 33.8783 94.9851C33.9163 94.9851 33.9539 94.9764 33.9881 94.9597C34.0224 94.9431 34.0525 94.9188 34.0763 94.8887C34.5311 94.5404 35.0986 94.3788 35.6657 94.4362C36.8061 94.4701 37.414 95.0301 37.4809 96.1953C37.5311 97.0438 37.4809 97.9092 37.5088 98.7661C37.5227 99.2837 37.1602 99.08 36.926 99.1112C36.6472 99.1507 36.4269 99.1338 36.4492 98.7209C36.4826 98.028 36.4659 97.3322 36.4492 96.6393C36.4352 95.7909 36.0728 95.3242 35.4286 95.3101C34.7845 95.296 34.2631 95.7994 34.2185 96.5743C34.1781 97.2873 34.1781 98.0022 34.2185 98.7152C34.2464 99.2017 33.9564 99.1112 33.6859 99.114C33.4154 99.1168 33.1283 99.179 33.1534 98.7095C33.1896 98.0364 33.1534 97.3633 33.1534 96.6902C33.1534 95.7768 32.802 95.3242 32.1272 95.3129C31.4524 95.3016 30.9422 95.8531 30.9199 96.7044C30.9031 97.3775 30.8892 98.0534 30.9199 98.7265C30.9478 99.2158 30.641 99.114 30.3789 99.114C30.1168 99.114 29.8073 99.2101 29.8213 98.7237C29.8882 98.0647 29.8631 97.4086 29.8631 96.7553Z"/><path fill="#C75305" d="M57.0244 73.9263C57.0244 75.2697 57.0049 76.6159 57.0244 77.9592C57.0244 78.4344 56.9045 78.6578 56.4166 78.5927C56.3167 78.5786 56.2153 78.5786 56.1154 78.5927C55.5438 78.6776 55.3542 78.4513 55.3626 77.8518C55.3905 75.2244 55.3988 72.5942 55.3626 69.9669C55.3626 69.2429 55.7111 69.2542 56.2186 69.2542C56.7261 69.2542 57.0551 69.2683 57.0356 69.9527C56.9882 71.2763 57.0244 72.5999 57.0244 73.9263Z"/><path fill="#C75305" d="M59.9774 97.4142V98.4521C59.9774 99.1111 59.7488 99.3515 59.1772 99.0658C58.8175 98.8848 58.6195 99.0488 58.3406 99.0941C57.8854 99.1804 57.4184 99.1804 56.9632 99.0941C56.6503 99.0539 56.3638 98.8957 56.1608 98.651C55.9577 98.4062 55.8529 98.0929 55.8674 97.7733C55.8512 97.6149 55.8663 97.4548 55.9117 97.3024C55.9571 97.1499 56.0319 97.0081 56.1318 96.8852C56.2316 96.7623 56.3546 96.6608 56.4935 96.5865C56.6324 96.5123 56.7845 96.4667 56.9409 96.4526C57.4783 96.387 58.0201 96.3652 58.5609 96.3875C58.929 96.3875 58.9625 96.2292 58.8565 95.9322C58.7984 95.746 58.6838 95.5831 58.5291 95.4669C58.3744 95.3506 58.1874 95.2868 57.9949 95.2846C57.5715 95.2383 57.1455 95.3433 56.7903 95.5815C56.4752 95.7908 56.3191 95.7286 56.1267 95.409C55.9343 95.0894 56.0598 94.8971 56.3553 94.7585C57.1609 94.3688 58.0814 94.3002 58.9346 94.5662C59.21 94.6412 59.4543 94.8041 59.6315 95.0307C59.8088 95.2573 59.9095 95.5357 59.9189 95.8247C59.9607 96.3479 59.9189 96.8796 59.9189 97.4085L59.9774 97.4142ZM58.2681 97.055C58.006 97.0861 57.7272 97.1002 57.4567 97.1568C57.3147 97.169 57.1818 97.233 57.0829 97.337C56.9839 97.4411 56.9255 97.578 56.9186 97.7224C56.9179 97.8666 56.9668 98.0065 57.0569 98.118C57.147 98.2295 57.2726 98.3057 57.4121 98.3333C57.6217 98.404 57.8464 98.415 58.0618 98.3651C58.2771 98.3153 58.4748 98.2064 58.6334 98.0505C58.7564 97.9606 58.8491 97.8344 58.899 97.6892C58.9488 97.544 58.9535 97.3868 58.9123 97.2388C58.8119 96.9305 58.4968 97.137 58.2681 97.055Z"/><path fill="#C75305" d="M38.5376 96.7892C38.5376 95.3186 39.4828 94.4164 41.0081 94.4249C42.4469 94.4249 43.3838 95.3525 43.3949 96.7609C43.3949 98.2231 42.4413 99.1677 40.9467 99.162C39.4522 99.1563 38.5404 98.2344 38.5376 96.7892ZM40.9523 95.2875C40.7658 95.2935 40.5823 95.3375 40.4128 95.4169C40.2433 95.4962 40.0913 95.6092 39.9656 95.7493C39.84 95.8894 39.7434 96.0536 39.6816 96.2322C39.6197 96.4108 39.5939 96.6002 39.6055 96.7892C39.5969 96.9823 39.6264 97.1753 39.6921 97.3568C39.7578 97.5383 39.8584 97.7047 39.9882 97.8463C40.118 97.988 40.2743 98.102 40.4479 98.1817C40.6216 98.2614 40.8092 98.3053 40.9997 98.3107C41.3733 98.2692 41.718 98.0874 41.9662 97.8011C42.2144 97.5149 42.348 97.1449 42.3409 96.7637C42.3407 96.3836 42.1964 96.0181 41.938 95.7428C41.6795 95.4675 41.3266 95.3035 40.9523 95.2846V95.2875Z"/><path fill="#C75305" d="M46.4426 95.2846H44.5354C44.2566 95.2846 43.9777 95.3609 43.9777 94.8858C43.9777 94.4107 44.2092 94.4588 44.5103 94.4616C45.4333 94.4616 46.3562 94.4616 47.2791 94.4616C47.4604 94.4616 47.7281 94.3287 47.8117 94.5804C47.8581 94.7044 47.871 94.8388 47.8489 94.9696C47.8268 95.1004 47.7707 95.2228 47.6863 95.3242C47.0226 96.1415 46.3729 96.9702 45.7205 97.796C45.6229 97.9176 45.5281 98.0449 45.3831 98.2344C46.069 98.3122 46.7603 98.3302 47.4492 98.2881C47.7755 98.2881 47.9093 98.3616 47.9093 98.7265C47.9093 99.0913 47.7253 99.0998 47.4604 99.097C46.4956 99.097 45.5309 99.097 44.5689 99.097C44.3681 99.097 44.0753 99.2356 43.9777 98.9867C43.9299 98.8524 43.9196 98.7073 43.9482 98.5675C43.9767 98.4277 44.043 98.2987 44.1395 98.1948C44.8087 97.3803 45.4528 96.5488 46.1052 95.7229C46.1945 95.6155 46.2781 95.5052 46.4426 95.2846Z"/><path fill="#C75305" d="M50.7172 99.7389C50.3157 99.7955 50.3156 99.6116 50.4188 99.3147C51.088 97.4028 51.76 95.491 52.4014 93.5679C52.5491 93.1267 52.867 93.2002 53.1263 93.2652C53.4693 93.3529 53.1877 93.6131 53.1403 93.7517C52.5129 95.6352 51.8576 97.5103 51.2163 99.3882C51.1271 99.6541 50.9988 99.8096 50.7172 99.7389Z"/><path fill="#C75305" d="M53.0289 99.739C52.6887 99.7928 52.5827 99.6797 52.7026 99.3374C53.3746 97.4256 54.0494 95.5166 54.6879 93.5934C54.8329 93.1579 55.1257 93.1918 55.3962 93.2597C55.7782 93.3587 55.477 93.6387 55.4268 93.7858C54.8022 95.6495 54.1526 97.5048 53.5168 99.3629C53.4304 99.6146 53.3384 99.8098 53.0289 99.739Z"/><path fill="#C75305" d="M49.2617 96.1907C48.8713 96.1907 48.5869 96.0096 48.5869 95.543C48.5869 95.0764 48.8379 94.8982 49.284 94.8982C49.7301 94.8982 49.9365 95.0651 49.9504 95.4978C49.9644 95.9305 49.7302 96.1737 49.2617 96.1907Z"/><path fill="#C75305" d="M49.9664 98.5344C49.9763 98.6254 49.9655 98.7174 49.9349 98.8035C49.9042 98.8896 49.8546 98.9674 49.7897 99.031C49.7249 99.0946 49.6465 99.1423 49.5606 99.1705C49.4748 99.1986 49.3837 99.2065 49.2944 99.1934C48.8706 99.1934 48.5973 99.0011 48.6001 98.5373C48.6001 98.1215 48.8204 97.9179 49.2442 97.9037C49.6681 97.8896 49.9469 98.0395 49.9664 98.5344Z"/></svg>